<?xml version="1.0" encoding="UTF-8"?>
<svg viewBox="0 0 400 400" xmlns="http://www.w3.org/2000/svg" xmlns:xlink="http://www.w3.org/1999/xlink">
 <defs>
  <linearGradient id="a">
   <stop stop-color="#7f2b09" offset="0"/>
   <stop stop-color="#7f2b09" stop-opacity="0" offset="1"/>
  </linearGradient>
  <radialGradient id="c" cx="403.41" cy="373.08" r="258.05" gradientTransform="matrix(1.5564 .02164 -.01452 1.3066 -279.13 -221)" gradientUnits="userSpaceOnUse" xlink:href="#a"/>
  <radialGradient id="b" cx="414.94" cy="373.98" r="136.59" gradientTransform="matrix(1.2999 1.4679e-7 -1.2446e-7 1.379 -189.23 -239.95)" gradientUnits="userSpaceOnUse" xlink:href="#a"/>
 </defs>
 <g transform="translate(-149.77 -75.806)">
  <g transform="matrix(.95706 0 0 .95706 21.138 12.37)">
   <path d="m365.63 75.283c-45.188 0.87838-86.783 20.142-122.49 44.912l-0.0177-1.8e-4c-23.027 16.022-43.008 37.759-56.301 64.61-7e-3 0.0123-0.0104 0.0262-0.0168 0.0384-0.0423 0.0856-0.0938 0.16376-0.13603 0.24946l-0.0669 0.173c-13.152 25.11-24.039 51.85-31.932 79.793-0.0283 0.10225-0.0555 0.2049-0.0816 0.3079-5.6098 21.699-6.336 46.209 2.0359 69.12 0.0643 0.24696 0.13481 0.49218 0.21135 0.73539 6.989 21.967 16.581 44.479 32.374 63.157l0.1819 0.21411c0.0718 0.0853 0.14453 0.16965 0.21817 0.25306 31.469 38.52 74.893 63.7 120.18 73.33 28.631 6.4879 56.162 1.3871 81.52-3.8417l0.24663-0.0553c13.92-3.1842 28.637-5.2306 43.722-8.3936l0.19395-0.0367c20.795-4.7302 42.604-14.931 56.612-35.875 15.317-22.017 23.44-46.858 32.273-69.35l0.0341-0.0576c12.752-32.948 13.926-69.258 10.065-103.34-1.7189-15.745-4.9658-31.865-11.39-47.372-7.072-17.675-15.808-34.629-26.402-50.399-0.11833-0.17783-0.24035-0.35278-0.36594-0.52471-23.599-32.098-56.509-51.769-88.54-66.409-8.2852-3.8362-18.816-10.754-32.951-10.986-3.1874-0.22548-5.9694-0.25074-8.8231-0.24397l-0.3542-0.0036z" fill="#f1b864" stroke="#0d0d0d" stroke-linecap="round" stroke-linejoin="round" stroke-width="1.1624"/>
   <path d="m366.3 89.241c-41.97 0.81584-81.538 18.875-116.02 42.797-21.58 15.015-40.121 35.296-52.28 59.981 2.5e-4 6e-3 3.9e-4 0.0128 4.3e-4 0.0193-12.84 24.445-23.431 50.445-31.08 77.524-5.1318 19.85-5.5442 41.834 2.0049 61.459 7.2e-4 0.0129 7.3e-4 0.0258 7.3e-4 0.0386 6.6944 21.041 15.684 41.712 29.731 58.248l0.0181 0.0195c29.324 36.112 70.37 60.049 113.16 69.148 25.595 5.7998 51.584 1.3238 76.686-3.8522 14.573-3.3335 29.368-5.3954 43.933-8.4493 18.938-4.3078 37.679-13.457 49.187-30.664 13.856-19.916 21.91-43.808 30.916-66.74 11.583-29.927 12.862-63.801 9.1789-96.31-1.6139-14.783-4.6391-29.512-10.323-43.231-6.7135-16.779-15.048-32.969-24.998-47.78-3e-3 -4e-3 2e-3 -0.0149-4.4e-4 -0.0193-21.428-29.145-52.196-47.868-83.272-62.072-9.1905-4.2554-18.138-9.7118-28.092-9.8754l-0.0354-3.6e-4c-2.8905-0.21803-5.794-0.25005-8.6991-0.24271l-0.0177-1.8e-4z" fill="none" stroke="#010000" stroke-linecap="round" stroke-linejoin="round" stroke-width=".46495"/>
   <path d="m366.51 95.63c-40.463 0.81114-79.063 18.328-112.96 41.844-20.878 14.526-38.725 34.092-50.365 57.724l-0.0673 0.15369c-12.648 24.081-23.061 49.667-30.577 76.275-4.8558 18.782-5.1094 39.18 1.7826 57.096 0.0486 0.14051 0.0932 0.28254 0.13355 0.42586 6.5474 20.579 15.26 40.384 28.457 55.919l0.0911 0.1167c28.328 34.885 68.204 58.172 109.76 67.011l0.0713 0.02c24.205 5.485 49.398 1.2765 74.384-3.8756 14.872-3.402 29.588-5.4454 43.915-8.4495 18.09-4.1149 35.356-12.755 45.718-28.248l0.0687-0.0958c13.186-18.954 21.133-42.318 30.219-65.454 11.047-28.544 12.357-61.285 8.7561-93.072l-4.5e-4 -0.0193c-1.5659-14.344-4.4923-28.415-9.8373-41.316l-0.0371-0.0776c-6.5139-16.28-14.565-31.959-24.149-46.266-0.0105-0.0144-0.0257-0.0246-0.0363-0.039-20.433-27.775-50.174-46.061-80.801-60.059l-0.0354-3.7e-4c-9.6196-4.454-17.806-9.238-25.849-9.3702-0.11237-0.0043-0.22473-0.0119-0.33691-0.0227-2.6292-0.19834-5.3779-0.22464-8.2028-0.21837l-0.0177-1.9e-4 -0.0886-8.8e-4z" fill="none" stroke="#010000" stroke-linecap="round" stroke-linejoin="round" stroke-width=".46495"/>
   <path d="m366.67 100.32c-39.362 0.8046-77.256 17.913-110.73 41.134-20.362 14.168-37.674 33.221-48.933 56.079-0.0444 0.0838-0.0897 0.16696-0.13603 0.24945-12.508 23.813-22.79 49.09-30.208 75.353-4.6531 17.998-4.7876 37.229 1.6218 53.891 0.0891 0.23608 0.1713 0.47504 0.24633 0.71644 6.4394 20.239 14.925 39.393 27.497 54.192 0.0552 0.0643 0.10982 0.12911 0.16372 0.19463 27.596 33.983 66.61 56.814 107.27 65.461l0.12483 0.0399c23.185 5.2537 47.8 1.2225 72.701-3.912 15.092-3.4523 29.745-5.4628 43.898-8.4304 17.468-3.9733 33.634-12.264 43.154-26.499l0.12049-0.15316c12.695-18.247 20.564-41.228 29.709-64.514 10.654-27.527 11.997-59.425 8.4558-90.683-3.1e-4 -0.0129-6e-4 -0.0258-7.2e-4 -0.0387-1.5306-14.021-4.3731-27.604-9.4691-39.904l-0.0562-0.13567c-6.3917-15.975-14.304-31.336-23.667-45.316-19.702-26.717-48.681-44.646-78.941-58.478l-0.0535-0.0198c-9.9347-4.5999-17.554-8.8776-24.194-8.9868-0.19494-3e-3 -0.38997-0.011-0.58484-0.0252-2.4424-0.18424-5.0644-0.22008-7.8309-0.21458l-0.0354-3.6e-4 -0.12398-1e-3z" fill="none" stroke="#010000" stroke-linecap="round" stroke-linejoin="round" stroke-width=".46495"/>
   <path d="m367.01 105.01c-38.318 0.75514-75.581 17.464-108.67 40.421-19.847 13.809-36.64 32.329-47.518 54.415l-0.18654 0.36474c-12.367 23.545-22.536 48.532-29.856 74.45-4.4507 17.215-4.4487 35.277 1.4788 50.686 0.12319 0.32549 0.23689 0.65485 0.34096 0.98755 6.3316 19.901 14.59 38.419 26.538 52.485l0.23634 0.27252c26.865 33.083 65.014 55.437 104.77 63.892l0.17795 0.0404c22.166 5.0228 46.221 1.2074 71.037-3.9096 15.312-3.5025 29.92-5.4994 43.898-8.4303 16.846-3.8318 31.894-11.753 40.574-24.731 0.0564-0.0837 0.11352-0.16672 0.17145-0.24913 12.203-17.542 20.014-40.118 29.217-63.554 10.261-26.513 11.619-57.565 8.1379-88.293-4.6e-4 -0.0193-7.3e-4 -0.0386-1e-3 -0.0579-1.4954-13.698-4.2712-26.792-9.1185-38.492-0.0254-0.0644-0.0505-0.12899-0.0752-0.19374-6.2421-15.601-13.95-30.584-23.04-44.19-18.975-25.739-47.227-43.344-77.173-57.032l-0.0717-0.0393c-10.249-4.7456-17.318-8.5174-22.557-8.6036-0.27193-8e-3 -0.54388-0.0232-0.81554-0.0469-2.2514-0.16983-4.7435-0.19571-7.4408-0.19135l-0.0531-5.3e-4z" fill="none" stroke="#010000" stroke-linecap="round" stroke-linejoin="round" stroke-width=".46495"/>
   <path d="m366.99 109.74c-37.149 0.79682-73.617 17.089-106.23 39.713-19.328 13.448-35.627 31.423-46.122 52.731l-0.23706 0.47999c-12.226 23.276-22.265 47.958-29.488 73.527-4.2468 16.426-4.1245 33.315 1.3176 47.462 0.16366 0.42108 0.31498 0.84736 0.45376 1.2782 6.2229 19.559 14.258 37.412 25.578 50.738l0.30936 0.36977c26.129 32.176 63.407 54.061 102.26 62.323l0.23111 0.0409c21.139 4.7902 44.624 1.1727 69.354-3.9267 15.533-3.5531 30.06-5.5366 43.863-8.4307 16.22-3.6894 30.195-11.25 38.028-22.962 0.0676-0.10292 0.13617-0.20515 0.20554-0.30663 11.709-16.83 19.444-39.027 28.707-62.613 9.8652-25.49 11.259-55.689 7.8381-85.884-6e-3 -0.0257-0.013-0.0516-0.0194-0.0774-1.4599-13.373-4.1534-25.984-8.7503-37.079-0.0319-0.0837-0.0632-0.16765-0.0942-0.25178-6.1209-15.298-13.668-29.958-22.54-43.24-18.243-24.655-45.721-41.882-75.277-55.392l-0.0894-0.0395c-10.566-4.8924-17.057-8.157-20.884-8.22-0.34862-6e-3 -0.69734-0.0225-1.0458-0.0492-2.1489-0.16207-4.6102-0.19772-7.37-0.1906z" fill="none" stroke="#010000" stroke-linecap="round" stroke-linejoin="round" stroke-width=".46495"/>
   <path d="m367.12 113.87c-36.174 0.79791-72.014 16.719-104.24 39.077-18.875 13.133-34.72 30.669-44.88 51.296-0.0936 0.19346-0.18964 0.38545-0.28802 0.57597-12.102 23.04-22.034 47.436-29.17 72.701-4.0686 15.737-3.8345 31.6 1.1832 44.644 0.19157 0.50416 0.36839 1.0143 0.53022 1.5298 6.128 19.261 13.994 36.545 24.765 49.225l0.36419 0.44751c25.485 31.384 61.991 52.856 100.05 60.949l0.28469 0.0608c20.242 4.5869 43.211 1.1228 67.866-3.9611 15.726-3.5974 30.213-5.5688 43.863-8.4307 15.672-3.5648 28.668-10.797 35.762-21.403l0.25739-0.36401c11.277-16.209 18.951-38.07 28.265-61.788 9.5194-24.597 10.935-54.054 7.5667-83.784l-0.0199-0.0967c-1.4289-13.089-4.043-25.255-8.4209-35.822l-0.13093-0.31007c-6.0009-14.998-13.404-29.354-22.06-42.328-17.605-23.751-44.409-40.696-73.654-54.063l-0.10714-0.0397c-10.843-5.0207-16.848-7.8346-19.442-7.8773-0.41381-0.0114-0.82762-0.0349-1.241-0.0705-1.9934-0.15035-4.3655-0.17524-7.0862-0.16843l-0.0177-1.8e-4z" fill="none" stroke="#010000" stroke-linecap="round" stroke-linejoin="round" stroke-width=".46495"/>
   <path d="m367.49 116.13c-35.742 0.71542-71.344 16.463-103.45 38.738-18.626 12.96-34.213 30.239-44.189 50.493l-0.32213 0.63348c-12.034 22.911-21.896 47.161-28.985 72.259-3.9707 15.359-3.6894 30.661 1.0953 43.099 0.21161 0.54873 0.40719 1.1042 0.58643 1.6654 6.0758 19.097 13.834 36.066 24.303 48.39 0.12926 0.16055 0.25688 0.32265 0.3828 0.48628 25.132 30.949 61.241 52.184 98.863 60.185l0.30238 0.061c19.749 4.4753 42.455 1.1256 67.07-3.9499 15.832-3.6217 30.28-5.5866 43.845-8.4309 15.372-3.4965 27.837-10.549 34.524-20.547 0.0902-0.13511 0.18166-0.26925 0.27424-0.40244 11.039-15.868 18.667-37.537 28.01-61.328 9.3295-24.106 10.772-53.154 7.4334-82.627l-0.0203-0.11597c-1.4119-12.933-3.9886-24.868-8.2463-35.145l-0.13137-0.32934c-5.9357-14.835-13.245-29.016-21.783-41.823-17.255-23.257-43.713-40.032-72.787-53.321l-0.10756-0.0589c-10.996-5.0912-16.725-7.664-18.641-7.6955-0.45478-4e-3 -0.9098-0.0216-1.3645-0.0525-1.8131-0.13677-4.0454-0.18423-6.573-0.18254l-0.0886-8.8e-4z" fill="none" stroke="#010000" stroke-linecap="round" stroke-linejoin="round" stroke-width=".46495"/>
   <path d="m367.66 119.67c-34.927 0.69979-70.019 16.154-101.82 38.214-18.238 12.69-33.431 29.558-43.12 49.23-0.12154 0.23864-0.24606 0.47539-0.37353 0.71018-11.928 22.709-21.684 46.749-28.699 71.586-3.8181 14.768-3.4519 29.172 0.96968 40.667 0.23937 0.62529 0.46032 1.2582 0.66248 1.8977 5.9946 18.841 13.584 35.319 23.583 47.09 0.15353 0.17977 0.30518 0.36143 0.45494 0.54493 24.581 30.27 60.016 51.151 96.96 59.008l0.35596 0.0808c18.981 4.3012 41.244 1.0801 65.794-3.9821 15.998-3.6595 30.411-5.6142 43.845-8.4309 14.903-3.3898 26.553-10.164 32.606-19.216l0.29107-0.44084c10.669-15.336 18.267-36.713 27.654-60.617 9.0335-23.341 10.484-51.761 7.1905-80.835l-0.0207-0.13529c-1.3853-12.69-3.9042-24.256-7.9745-34.081l-0.16767-0.36831c-5.8417-14.6-13.008-28.546-21.377-41.105-16.712-22.464-42.591-38.952-71.379-52.11l-0.12525-0.0592c-6.3084-2.0379-12.27-7.05-18.937-7.4862-1.6737-0.12625-3.8253-0.16095-6.2893-0.16037l-0.0885-8.1e-4z" fill="url(#c)" stroke="#0d0d0d" stroke-linecap="round" stroke-linejoin="round" stroke-width="1.1624"/>
   <path d="m367.45 123.77c-33.85 0.79312-68.198 15.858-99.511 37.581-17.787 12.376-32.539 28.8-41.895 47.795-0.13223 0.27083-0.26782 0.53963-0.40676 0.8063-11.805 22.475-21.468 46.244-28.399 70.779-3.641 14.083-3.1464 27.469 0.85346 37.867 0.27277 0.70181 0.52497 1.4123 0.75627 2.1302 5.9002 18.545 13.282 34.467 22.735 45.596l0.50938 0.60334c23.941 29.483 58.631 49.965 94.787 57.654l0.40907 0.0813c18.09 4.0992 39.849 1.0692 64.325-3.9778 16.19-3.7035 30.546-5.6463 43.827-8.4311 14.359-3.2661 25.039-9.7237 30.357-17.676 0.11854-0.17373 0.23859-0.34619 0.36016-0.51734 10.239-14.718 17.756-35.757 27.194-59.792 8.6899-22.453 10.16-50.123 6.9191-78.735l-0.0212-0.15459c-1.3545-12.407-3.8106-23.543-7.6632-32.842-0.0572-0.14169-0.11348-0.28379-0.16896-0.42623-5.7223-14.302-12.76-27.939-20.914-40.194-16.082-21.57-41.282-37.767-69.755-50.782l-0.14297-0.0594c-5.7918-2.7172-11.399-7.3909-17.708-7.165-1.6058-0.12112-3.738-0.14624-6.3243-0.1414l-0.12396-2e-3z" fill="none" stroke="#010000" stroke-linecap="round" stroke-linejoin="round" stroke-width=".46495"/>
   <path d="m367.55 126.55c-33.198 0.79083-67.136 15.624-98.192 37.17-17.481 12.163-31.92 28.264-41.05 46.8-0.14339 0.29019-0.29037 0.57817-0.44089 0.86384-11.722 22.316-19.826 46.246-26.698 70.576-3.5207 13.618-2.9558 26.322 0.7577 35.975 0.2935 0.75926 0.56472 1.5278 0.81331 2.3045 5.8361 18.343 11.616 33.54 20.698 44.232l0.54611 0.66161c23.507 28.948 57.694 49.138 93.314 56.713l0.42721 0.10085c17.484 3.962 38.907 1.0294 63.333-4.0072 16.32-3.7333 30.65-5.668 43.827-8.4311 13.989-3.1821 24.021-9.4246 28.84-16.63l0.37747-0.53644c9.9476-14.299 17.415-35.112 26.888-59.236 8.4564-21.85 9.944-49.031 6.7384-77.328-1e-3 -0.0515-2e-3 -0.10293-4e-3 -0.1544-1.3336-12.216-3.7448-23.068-7.4497-32.011-0.0634-0.15458-0.12597-0.30958-0.18757-0.46499-5.6306-14.073-12.554-27.465-20.544-39.495-15.652-21.002-40.435-37.01-68.727-49.941l-0.14342-0.0786c-4.7417-1.8709-10.613-6.8215-16.853-6.9248-1.501-0.11322-3.5777-0.16314-6.1299-0.15872l-0.14168-2e-3z" fill="none" stroke="#010000" stroke-linecap="round" stroke-linejoin="round" stroke-width=".46495"/>
   <path d="m353.37779,191.5361c-41.6858,3.4418-65.97368,36.14314-79.86895,70.80725l-.0192.0368c-4.94006,12.91068-4.31943,25.94689-1.67753,38.48548l.0126.0742c.002.009.0139.0105.0159.0187 .006.0322.0221.0606.0285.0928 2.24565,11.32219 7.34057,21.33322 13.95581,29.75906l.033.0189c.0492.0659.10238.12831.15909.18673 11.41405,14.88133 26.72799,22.70322 43.53994,27.70863 .0609.0163.12257.0293.18491.0389 22.90433,4.21743 46.36272-2.39335 66.07848-16.96974 .0819-.061.1599-.12824.23324-.20123 21.65634-21.35672 34.01256-44.10985 34.45499-77.32152 .002-.0246.004-.0493.004-.0739-.13747-5.85953-.83981-12.47277-2.8189-19.55758l-.0285-.0928c-.0101-.0359-.00026-.0753-.0104-.11118-.0186-.13995-.0504-.27672-.0948-.4082l-.0285-.0929c-.005-.015-.01-.0236-.0148-.0371-.063-.19439-.0223-.0364-.0159-.0187-.006-.0221.0289.0543-.0127-.0742-.0226-.0572-.0477-.11298-.0751-.16738-12.81332-30.25456-42.65398-50.59826-73.79735-52.09848-.079-.006-.15851-.007-.23814-.002z" fill="url(#b)" stroke="#0e0e0e" stroke-linecap="round" stroke-linejoin="round" stroke-width="1.1624"/>
   <path d="m353.35023,189.42558c-42.55987,3.51398-67.56511,37.11912-81.61853,72.17781l-.0384.0736c-5.15121,13.46246-4.46173,27.01293-1.77162,39.78028 .005.0124.01.0248.0148.0371l.0115.0927c.0115.0472.016.0884.0263.12986l.017.00017c2.33367,11.64893 7.57068,21.90658 14.32003,30.50318l.017.00017c.08.10435.16494.20407.25454.29875 11.71043,15.20552 27.41016,23.18404 44.37665,28.23542 .11544.0382.23282.0702.3517.0961 23.43346,4.31487 47.43693-2.47529 67.54743-17.34354 .15712-.11677.30698-.24515.44837-.38419 21.90526-21.60215 34.69647-45.16994 35.14611-78.92492-.00072-.0618-.003-.12358-.006-.18517-.14021-5.97749-.85037-12.76695-2.87531-20.03941-.0113-.0684-.0244-.13645-.039-.20399-.0191-.0678-.0196-.13609-.0389-.20401-.0137-.0436-.0282-.087-.0434-.13004-.0205-.0875-.0438-.17422-.0696-.25985l-.0296-.0744c-.0379-.11716-.009.00081-.0159-.0187-.003-.007.004-.0115.00073-.0185 .009.0271-.0176-.0452-.0148-.0371-.007-.0212.0134.0194.001-.0185-.0389-.12011-.083-.23792-.13218-.35304-13.13419-31.0122-43.51876-51.69036-75.38126-53.22523-.15236-.0114-.30571-.013-.45925-.005z" fill="none" stroke="#010000" stroke-linecap="round" stroke-linejoin="round" stroke-width=".46495"/>
   <path d="m354.06408,186.58216c-.26098-.007-.523.002-.78466.029-43.73672,3.61116-69.67245,38.39692-83.9388,73.98683l-.0406.11063c-5.43544,14.20534-4.68113,28.44337-1.92611,41.51874l-.001.0185c.005.0247.008.0494.0126.0742 .008.0434.0172.0867.0263.12984 .0127.0524.0327.0874.0433.13002 2.44302,12.09947 7.89094,22.6718 14.82188,31.50785 .008.01.007.0273.0148.0372 .14892.19677.30826.38379.47727.56016 12.09703,15.54703 28.2401,23.72126 45.36314,28.81927 .19889.0558.40066.10115.60464.13572 24.14588,4.44602 48.85614-2.54379 69.49821-17.80503 .27051-.19956.52822-.41968.77104-.65853 22.2404-21.93268 35.5991-46.61345 36.0585-81.09994 .001-.0927.001-.18524-.00051-.27767-.14224-6.06473-.87155-13.02151-2.9021-20.44692 .00036-.006.00072-.0124.00072-.0185-.0556-.29668-.1293-.58804-.22042-.87223-.0291-.12489-.0615-.24866-.097-.37122 .007.0231.12129.42001-.0307-.0558-.0212-.0655.0155.0257.001-.0185 0,0-.0103-.0247-.0148-.0372-.0103-.0323.0191.0678-.0148-.0371l.001-.0185c-.0608-.1894-.12916-.37537-.20511-.55742-13.56623-32.03234-44.68742-53.20181-77.51819-54.78332z" fill="none" stroke="#010000" stroke-linecap="round" stroke-linejoin="round" stroke-width=".46495"/>
   <path d="m354.24001,184.76988c-.3287-.0127-.6589-.004-.98878.0269-44.49015,3.67336-71.03541,39.22625-85.43811,75.15627l-.0587.129c-5.61741,14.68095-4.82384,29.37432-2.02729,42.64683 .0214.0933.0443.1861.0685.27838 .0136.0557.0314.10502.0422.1485l.0171.00016c2.51661,12.37088 8.06761,23.15995 15.10762,32.14016 .0128.0163.0179.0395.0307.0558 .18471.23613.38159.46057.58974.67239 12.34801,15.79591 28.77723,24.09971 46.01929,29.23317 .25406.072.51187.13016.77255.17444 24.60199,4.53003 49.7774-2.61258 70.75975-18.12538 .3395-.24944.66307-.52456.96808-.82319 22.45494-22.14421 36.1687-47.52759 36.63435-82.48238 .004-.11732.005-.23458.004-.35168-.1466-6.25003-.89397-13.46727-3.02928-21.17011-.0473-.21924-.1026-.4359-.16558-.64957-.0348-.13106-.0725-.26106-.11297-.38987 .007.0235.16282.50606-.0285-.0928-.0694-.21435.005.00065-.0137-.0557l-.0148-.0372 .001-.0185c-.006-.0165-.024-.0156-.0318-.0373s-.009-.0439-.0137-.0557c-.0656-.20771-.13862-.41223-.21881-.61309-13.84281-32.68541-45.42212-54.14829-78.87278-55.75964z" fill="none" stroke="#010000" stroke-linecap="round" stroke-linejoin="round" stroke-width=".46495"/>
   <path d="m354.4968,181.8848c-.43029-.0201-.86271-.0121-1.29497.0238-45.68579,3.7721-73.19257,40.53206-87.81161,77.00178-.0273.0674-.054.13497-.0802.2028-5.89815,15.41463-5.03279,30.77653-2.17961,44.3483l.0137.0557c.003.0132.0121.0239.0148.0371 .0202.11172.042.22301.0653.33384 .0148.061.0311.10377.0422.14852 2.63586,12.8577 8.40192,24.01947 15.65395,33.25634 .23036.29419.475.5747.73292.84042l.0318.0374c12.74517,16.18572 29.65719,24.68387 47.0875,29.87339 .33684.0958.67872.17343 1.02441.23253 25.3258,4.66328 51.22326-2.69295 72.74563-18.60504 .4528-.33233.88422-.69916 1.29076-1.09752 22.79543-22.48002 37.09041-48.99624 37.56594-84.69424 .00062-.15451-.001-.30879-.007-.46285-.14925-6.36335-.90915-13.76063-3.06867-21.65179-.066-.31342-.14409-.62301-.23415-.92792-.052-.19371-.10861-.38565-.16999-.57557l-.0593-.14868c0,0 .002-.0161.001-.0185-.01-.0249-.0197-.0496-.0296-.0744-.002-.006.004-.0122.001-.0185-.0938-.2711-.19717-.53764-.30989-.79912-14.28174-33.72183-46.59236-55.6592-81.02673-57.31794z" fill="none" stroke="#010000" stroke-linecap="round" stroke-linejoin="round" stroke-width=".46495"/>
   <path d="m354.68813,179.81354c-.50997-.0201-1.02227-.006-1.53421.0399-46.54632,3.84313-74.75015,41.47748-89.52495,78.33566-.0276.0736-.0547.14734-.0812.22131-6.10337,15.95093-5.18532,31.79374-2.28739,45.58744 .005.0242.008.05.0126.0742 .0342.14926.0707.29773.10967.44537l.0411.16702c2.71994,13.18381 8.35992,25.70826 15.74833,35.11886 .27035.34642.55744.67676.86021.9898l.0159.0187c13.0321,16.47608 30.55651,23.99372 48.12929,29.22562 .39143.11774.78897.21445 1.19118.28976 25.8468,4.75923 53.99818-3.01285 75.90922-19.2123 .53482-.39318 1.04423-.82729 1.524-1.29878 23.0405-22.72167 36.02656-49.79478 36.5092-86.02773 .002-.17913.002-.35811-.002-.53683-.15232-6.49411-.94126-14.07566-3.15695-22.17102-.0671-.31901-.14474-.63469-.23301-.94641-.0438-.16821-.0906-.33532-.14039-.50121 .001.006-.0312-.0884-.0148-.0371 .002.007-.002-.0277.001-.0185 .0517.16163.15875.5245-.0444-.1115-.0181-.0683-.0368-.13632-.0559-.2042 0,0-.0204-.027-.0307-.0558-.004-.0112-.0115-.006-.0159-.0187-.008-.0216-.011-.0483-.0137-.0557-.0979-.29563-.20548-.58688-.32246-.87327-14.59768-34.46779-47.45124-56.75165-82.59364-58.44449z" fill="none" stroke="#010000" stroke-linecap="round" stroke-linejoin="round" stroke-width=".46495"/>
   <path d="m354.0423,176.84427c-46.7271-.24596-73.39823,41.01959-92.37205,80.51051l-.10048.25813c-6.33034,16.54418-5.35008,32.95447-2.40507,46.99304 .008.0371.0197.0744.0274.11137 .005.0246.008.0495.0127.0742 .0294.14279.0606.28504.0938.4267 .0168.0689.0284.13877.04.18552l.017.00017c2.80066,13.49529 7.23981,26.406 14.73833,35.99068l.0159.0187c.0277.0354.0507.0766.0784.11188 .31061.39834.64018.77854.98749,1.13918 13.35458,16.81007 32.58481,24.34333 50.32318,29.62455 .45793.13432.92285.24404 1.39312.32883 26.4306,4.86672 56.42558-3.06896 78.77222-19.59045 .61731-.46067 1.20501-.96823 1.75837-1.51856 23.34535-22.99221 37.95448-50.95264 36.03841-87.80952-.00015-.21632-.004-.43236-.0125-.64801-.15521-6.61685-.95259-14.38096-3.21228-22.67137-.0686-.31854-.14628-.63416-.23302-.94643l-.0274-.11134c-.0493-.17442-.10138-.34775-.15627-.51989 .008.025.27599.88789-.0729-.20436-.11018-.34012.01.0239-.0285-.0928l-.057-.1857c-.12822-.38445-.27036-.76257-.42613-1.13348-14.95173-35.3038-49.2566-58.61039-85.19254-60.34145z" fill="none" stroke="#010000" stroke-linecap="round" stroke-linejoin="round" stroke-width=".46495"/>
   <path d="m352.79 173.04c-49.423 4.2733-77.854 45.968-95.457 82.476-0.0476 0.11636-0.0942 0.23313-0.13997 0.35027-6.8634 17.937-5.732 35.644-2.651 50.267 0.0514 0.22385 0.10623 0.44655 0.16447 0.66806 0.0191 0.0783 0.0279 0.13647 0.04 0.1855l0.017 1.6e-4c3.0003 14.294 8.9593 28.128 16.788 38.146 0.0452 0.0579 0.0797 0.12866 0.12507 0.18637 13.515 17.793 32.996 24.724 52.33 31.953 0.60722 0.1749 1.2236 0.31707 1.8469 0.426 27.725 5.105 58.969-5.3799 82.282-22.615 0.81808-0.60424 1.5973-1.2707 2.3313-1.994 23.924-23.593 37.226-51.439 37.734-89.6 5e-3 -0.28413 5e-3 -0.56801-3.9e-4 -0.8515-4.2503-52.39-50.415-84.093-95.41-89.598z" fill="none" stroke="#010000" stroke-linecap="round" stroke-linejoin="round" stroke-width=".46495"/>
   <path d="m355.75 168.98c-52.996-0.0199-81.979 36.281-100.82 85.533l-0.14219 0.38729c-13.638 30.121-3.1947 68.645 14.125 92.657 0.34189 0.41919 0.69815 0.82412 1.0681 1.214 12.857 18.789 29.105 27.706 53.203 31.253 0.68934 0.20504 1.3894 0.37275 2.0976 0.50258 29.158 5.1582 78.527-8.8455 87.776-24.872 30.123-24.148 38.259-53.61 37.777-92.285-1.9116-54.357-47.686-86.307-95.083-94.391z" fill="none" stroke="#010000" stroke-linecap="round" stroke-linejoin="round" stroke-width=".46495"/>
   <path d="m291.06 191.7c-16.612 15.485-30.045 36.946-39.554 61.801l-1e-3 0.0185c-0.0277 0.0737-0.0541 0.1474-0.0813 0.22131s-0.0556 0.13422-0.0801 0.20281c-14.079 31.365-3.5158 70.251 14.124 94.706l0.0795 0.0934c0.3458 0.42396 0.71212 0.83585 1.084 1.2327 0.0333 0.0355 0.062 0.0767 0.0955 0.11205 13.006 18.882 31.476 28.673 55.756 32.315 0.094 0.0141 0.17462 0.0444 0.26886 0.0583 0.67377 0.19122 1.3398 0.37544 2.0296 0.50188l0.017 1.7e-4c15.03 2.659 33.872 0.8553 50.306-3.617 8.2168-2.2361 20.788-4.8155 27.023-8.249 5.998-3.3028 10.73-7.0735 13.503-11.543 30.545-24.685 36.814-57.243 37.461-96.052 0.0103-0.0924 0.0158-0.18501 0.0165-0.27749-0.0262-28.439-12.266-50.675-30.453-66.578s-42.579-27.186-66.833-31.15c-24.971-0.92592-45.028 11.673-64.763 26.204z" fill="none" stroke="#010000" stroke-linecap="round" stroke-linejoin="round" stroke-width=".46495"/>
   <path d="m289.11 189.2c-17.176 16.011-31.425 37.507-41.053 62.675l-0.0192 0.0368c-0.0601 0.15976-0.1241 0.31874-0.18171 0.47943-15.828 33.217-8.8163 75.403 15.597 99.544l0.18982 0.24257c0.34405 0.42185 0.69995 0.83447 1.067 1.2326 13.356 19.354 32.364 28.669 57.345 32.376l0.11799 0.0197c0.63991 0.17111 1.2774 0.34427 1.9297 0.46384l0.034 3.5e-4c15.645 2.7678 34.764 0.91339 51.568-3.6597 8.4021-2.2866 23.408-4.6486 29.942-8.2464 6.0559-3.3347 11.047-7.1595 14.359-12.201 31.15-25.419 36.76-60.159 36.169-98.501 0.0173-0.20981 0.0241-0.41983 0.0204-0.62918-0.0271-29.473-12.808-52.694-31.514-69.051-18.882-15.045-45.347-30.386-68.78-31.873-26.461-0.21981-46.334 10.559-66.791 27.09z" fill="none" stroke="#0e0e0e" stroke-linecap="round" stroke-linejoin="round" stroke-width="1.1624"/>
   <path d="m367.63 129.99c-32.354 0.80059-65.809 15.339-96.522 36.647-17.099 11.897-31.168 27.633-40.015 45.595-0.1564 0.31654-0.31039 0.62909-0.47455 0.94069-11.619 22.12-19.19 45.672-25.991 69.748-3.3626 13.006-2.7306 24.874 0.6338 33.62 0.32012 0.82813 0.6178 1.6704 0.88891 2.5175 5.7488 18.069 10.982 33.01 19.576 43.127l4.3e-4 0.0193 0.60054 0.72004c22.957 28.271 56.535 48.124 91.482 55.556l0.0359 0.0197c0.15544 0.0356 0.30741 0.0634 0.46263 0.10116 16.663 3.7758 37.758 0.97481 62.075-4.0392 16.466-3.7666 28.782-6.238 41.814-8.9706 13.488-3.068 22.837-9.1701 26.974-15.356l0.0168-0.0384c0.13558-0.19648 0.27314-0.38109 0.412-0.5747 9.5376-13.709 18.999-33.769 28.493-57.948 6.4429-20.149 8.8402-47.226 6.5123-75.574-3e-3 -0.0579-4e-3 -0.11583-4e-3 -0.17371-7e-3 -0.0598-0.015-0.11419-0.0216-0.17387-1.3105-11.894-3.6769-22.369-7.1748-30.811-0.0692-0.16854-0.13935-0.35356-0.20655-0.5231-5.5152-13.784-12.274-26.883-20.064-38.641-15.092-20.251-39.414-36.093-67.447-48.906-0.0543-0.0247-0.10806-0.0509-0.16112-0.0789l-0.0358-0.0196-0.16113-0.0788c-5.6528-2.6124-9.639-4.3093-12.036-5.3322-2.9876-1.6468-6.2746-1.3558-9.4859-1.3699l-0.0354-3.5e-4 -0.0354-3.6e-4 -0.10626-8e-4z" fill="none" stroke="#010000" stroke-linecap="round" stroke-linejoin="round" stroke-width=".46495"/>
   <path d="m287.12 186.7c-17.579 16.387-35.921 42.037-45.637 67.352-0.0491 0.0977-0.0934 0.19832-0.13266 0.30141l-0.0161 0.0566c-0.0382 0.10168-0.0744 0.2107-0.11478 0.32051-0.0265 0.0722-0.0561 0.13367-0.0825 0.20733-15.828 34.672-4.0826 74.423 16.431 99.568l0.0183 0.038c0.0967 0.13117 0.20796 0.26491 0.3049 0.38155 0.34133 0.41853 0.70574 0.81789 1.0732 1.222 13.718 19.772 37.222 29.074 62.779 32.866l0.12246 0.0202c0.54281 0.14791 1.1272 0.32321 1.8402 0.45389l0.0523 5.4e-4c0.0812 0.0171 0.16291 0.0305 0.24491 0.0403l0.0523 5.3e-4c16.187 2.8002 38.835 3.3353 55.864-1.299 8.5707-2.3324 19.543-4.8251 26.328-8.561 6.106-3.3623 13.246-5.6907 16.937-11.089 31.731-26.052 37.13-65.918 35.989-104.46l-1e-3 -0.0568c0.0278-0.33806 0.0358-0.6546 0.0301-0.98367-0.028-30.492-13.394-54.743-32.688-71.614-48.571-40.362-90.136-47.35-139.39-4.765z" fill="none" stroke="#010000" stroke-linecap="round" stroke-linejoin="round" stroke-width=".46495"/>
   <path d="m284.4 183.28c-18.281 17.041-34.797 39.397-44.668 65.181-0.01 0.0258-0.0233 0.0495-0.0332 0.0754l-0.0332 0.0754c-0.0678 0.18044-0.13412 0.38342-0.21298 0.60336-16.955 36.496-12.828 79.932 10.093 106.3l0.0361 0.0571c0.1452 0.19712 0.32699 0.44192 0.46687 0.61027 0.34335 0.42097 0.69105 0.81608 1.0558 1.2218 14.182 20.289 43.773 32.013 69.994 35.966l0.22748 0.0402c0.51414 0.14085 1.0257 0.30459 1.8402 0.4539l0.0697 7.2e-4c0.20884 0.0375 0.4188 0.0648 0.62927 0.0821 16.927 2.8635 43.15 3.3418 60.516-1.3842 8.8009-2.3951 21.318-2.8021 28.445-6.7268 6.1676-3.3961 11.737-7.5443 15.907-13.349 32.553-26.937 33.86-69.555 34.503-107.75 5e-3 -0.044 0.01-0.0881 0.0145-0.13231 0.0422-0.51317 0.0624-0.98288 0.0538-1.4755-0.0293-31.883-14.322-57.334-34.283-75.093-21.788-21.84-48.929-37.018-72.912-34.802-28.879 0.0924-49.336 11.993-71.71 30.041z" fill="none" stroke="#010000" stroke-linecap="round" stroke-linejoin="round" stroke-width=".46495"/>
   <path d="m363.97 148.18c-30.012-7e-3 -67.824 14.955-86.857 32.697-18.95 17.664-32.009 41.478-42.029 67.638-0.0148 0.0387-0.0349 0.0743-0.0497 0.11303l-0.0323 0.1132c-0.0725 0.1929-0.15489 0.40404-0.24656 0.65979-17.292 38.765-13.738 80.135 8.0739 106.86l0.0723 0.11428c0.19604 0.26613 0.44361 0.59761 0.62847 0.82005 0.34687 0.4253 0.69565 0.81767 1.0558 1.2218 7.0273 14.179 32.805 33.081 61.159 38.826l0.12246 0.0201c0.51844 0.14129 1.3585 0.3964 2.6459 0.63243l0.10501 0.02c17.928 3.1717 64.789 3.7343 82.834-1.1765 9.0418-2.4607 17.129-3.0031 24.614-7.1252 6.3162-3.478 12.28-7.8554 16.935-14.153 33.336-27.84 31.939-70.985 34.496-110.09 5e-3 -0.063 9e-3 -0.12598 0.0131-0.18909 0.0572-0.69648 0.0892-1.3035 0.0776-1.9672-0.0307-33.339-15.013-60.454-35.952-78.762-20.861-18.241-38.83-31.764-65.136-36.063-0.83259-0.13602-1.6518-0.21546-2.5145-0.21478l-0.0174-1.7e-4z" fill="none" stroke="#010000" stroke-linecap="round" stroke-linejoin="round" stroke-width=".46495"/>
   <path d="m367.71 133.54c-31.481 0.80877-64.424 15.044-94.781 36.105-16.703 11.622-29.21 27.796-37.764 45.165-0.1552 0.31412-0.31499 0.65076-0.50824 1.0175-11.512 21.917-19.299 44.919-26.025 68.732-3.1981 12.37-2.4761 23.384 0.52585 31.188 0.34732 0.89852 0.66963 1.8091 0.96454 2.7306 5.6563 17.778 9.8777 31.823 17.96 41.337 0.0775 0.0932 0.15062 0.19051 0.21904 0.29167l0.0181 0.0195c0.13662 0.16206 0.26615 0.31696 0.41864 0.50595 22.387 27.568 55.347 47.076 89.596 54.36l0.21384 0.0601 0.10712 0.0397c0.0846 0.0177 0.12994 8e-3 0.26653 0.0413 15.795 3.5792 36.548 0.93697 60.747-4.0527 16.617-3.8012 28.186-6.5472 41.064-9.2474 11.813-2.9244 19.239-8.8275 24.919-13.852 0.0383-0.0589 0.0784-0.11639 0.12007-0.17244 0.0109-0.0258 0.0222-0.0514 0.0337-0.0768l0.44609-0.63223c9.1042-13.086 19.321-32.694 28.835-56.923 6.5406-19.993 7.4416-45.87 6.2876-73.763-0.0105-0.0835-0.0183-0.16723-0.0234-0.25109-1e-3 -0.0372-1e-3 -0.0786-3e-3 -0.11582-1.2819-11.634-3.6012-21.778-6.903-29.747l-0.22512-0.56186c-5.3998-13.496-11.994-26.304-19.585-37.788l-0.0544-0.0585c-15.965-16.716-38.521-34.716-66.057-47.753l-0.32227-0.15766-0.0358-0.0196-0.0177-1.8e-4c-5.6113-2.5933-9.5473-4.2879-11.947-5.312-2.7568-1.4806-5.1322-1.099-8.2759-1.1067l-0.0177-1.8e-4 -0.0708-7.2e-4 -0.0177-1.7e-4 -0.10624-8e-4z" fill="none" stroke="#010000" stroke-linecap="round" stroke-linejoin="round" stroke-width=".46495"/>
   <path d="m368.01 137.56c-30.555 0.76108-63.022 14.679-93.042 35.505-16.255 11.31-28.612 27.032-36.835 43.727l4.3e-4 0.0193c-0.15388 0.31139-0.33301 0.68418-0.55921 1.1135-11.392 21.688-18.039 44.099-24.682 67.615-0.3302 10.04-1.781 21.647 1.4343 31.428 5.5515 17.449 8.9148 31.343 16.417 40.175l0.0186 0.0387 0.12744 0.15567c0.16873 0.19937 0.35122 0.41416 0.58238 0.70058 21.74 26.772 53.982 45.911 87.441 53.026l0.14257 0.04 0.0535 0.0198c0.0152 2e-3 0.1293 0.016 0.48033 0.10134 14.813 3.3566 35.211 0.85587 59.276-4.1062 16.788-3.8404 25.622-6.3232 38.325-8.9867 12.338-2.8064 20.279-8.6905 22.842-12.523l0.0859-0.1149c11.431-17.453 23.883-37.328 31.579-56.99 5.1595-18.966 4.959-43.767 6.0149-71.72-0.0119-0.12859-0.0206-0.25735-0.0264-0.3862-7e-3 -0.0601-0.015-0.1139-0.0216-0.17389-1.2535-11.263-3.5078-20.98-6.571-28.374l-0.0181-0.0195c-0.12956-0.31567-0.20891-0.53101-0.24415-0.61995-5.286-13.211-11.745-25.716-19.14-36.915-16.366-14.894-37.359-33.604-64.506-46.464-0.13621-0.0618-0.26442-0.11172-0.39352-0.17767l-0.10756-0.0589c-5.481-2.5304-9.3515-4.1782-11.732-5.194-3.5652-1.4729-4.6237-0.84248-6.9066-0.84198l-0.0177-1.6e-4 -0.0177-2e-4z" fill="none" stroke="#010000" stroke-linecap="round" stroke-linejoin="round" stroke-width=".46495"/>
   <path d="m366.58 142.98c-31.137-7e-3 -67.511 14.182-87.257 32.58-19.661 18.319-36.9 40.325-47.296 67.454-16.395 30.013-25.395 79.516 9.5501 120.3 15.113 21.444 42.596 32.828 64.201 40.674 12.031 4.3693 58.366 2.8656 69.815 0.39955 16.303-4.421 48.822-8.7542 60.137-22.423 29.719-27.784 36.3-75.91 36.631-119.81-0.0315-34.574-17.599-62.324-39.323-81.311-39.682-37.045-59.775-37.934-66.46-37.866z" fill="none" stroke="#010000" stroke-linecap="round" stroke-linejoin="round" stroke-width=".46495"/>
   <path d="m366.2 85.014-0.10582 0.01822c-42.943 0.83474-83.12 19.255-117.97 43.434-22.019 15.32-41.004 36.035-53.505 61.378-0.0137 0.0278-0.0376 0.0488-0.0514 0.0767-0.0174 0.0445-0.0341 0.0894-0.0501 0.13456-12.917 24.625-23.581 50.825-31.296 78.14-0.0114 0.0319-0.0226 0.0639-0.0333 0.0961-5.2652 20.366-5.7701 43.06 1.9836 63.658 0.0273 0.12387 0.0596 0.24654 0.0968 0.36761 6.7848 21.325 15.962 42.555 30.544 59.742 0.0147 0.0172 0.022 0.041 0.0367 0.0582 0.0281 0.0346 0.0626 0.0628 0.0907 0.0974l0.0544 0.0585 0.0544 0.0585c29.966 36.764 71.679 61.04 115.17 70.288 26.512 6.0078 52.959 1.3352 78.138-3.8568l0.0881-0.0184c14.375-3.2884 29.141-5.3438 43.863-8.4307l0.0531 5.4e-4c19.5-4.4354 39.172-13.906 51.435-32.242 14.297-20.551 22.37-44.728 31.323-67.527l0.0173-0.0191c11.936-30.84 13.168-65.463 9.4317-98.449-1.6457-15.074-4.7265-30.21-10.634-44.47-6.8099-17.02-15.247-33.418-25.368-48.498l-0.0548-0.0777c-2.5e-4 -5e-4 -4.3e-4 -0.0193-4.4e-4 -0.0193l-0.10974-0.15548c-22.084-30.037-53.495-49.045-84.859-63.381-8.9169-4.1287-18.352-10.034-29.569-10.218l-0.12353 0.01804c-2.9644-0.21464-5.8144-0.24977-8.6814-0.24253l0.035-0.01894z" fill="none" stroke="#010000" stroke-linecap="round" stroke-linejoin="round" stroke-width=".46495"/>
   <path d="m365.86 79.916c-44.119 0.8576-85.045 19.732-120.34 44.22l-0.0177-1.8e-4c-22.546 15.687-42.038 36.948-54.954 63.08-2e-3 5e-3 3e-3 0.0145 4.5e-4 0.0193-0.0299 0.0605-0.0725 0.11207-0.10235 0.17261l-0.0674 0.1537c-13.039 24.877-23.823 51.343-31.631 78.985l-0.0661 0.21157c-5.4536 21.094-6.0669 44.789 2.0506 66.631 0.0413 0.14946 0.086 0.2979 0.13397 0.44516 0.068 0.18008 0.12012 0.36242 0.18929 0.54222 6.8734 21.476 16.217 43.17 31.298 60.984 0.0225 0.0277 0.0501 0.0503 0.0726 0.078 0.0204 0.0241 0.0344 0.0537 0.0548 0.0777l0.14559 0.17513 0.0907 0.0974c30.75 37.655 73.344 62.395 117.75 71.839 27.622 6.2592 54.654 1.3726 79.927-3.8386l0.15853-0.037c14.137-3.2338 28.88-5.3047 43.792-8.4314l0.12354-0.018c20.178-4.5898 40.96-14.442 54.137-34.144 14.831-21.319 22.942-45.848 31.832-68.486l0.0168-0.0384c12.363-31.944 13.566-67.45 9.7635-101.01-1.684-15.426-4.8441-31.066-11.022-45.979-6.941-17.348-15.529-34.019-25.885-49.448l-0.0548-0.0777c-1.2e-4 -2.1e-4 -4.3e-4 -0.0193-4.3e-4 -0.0193l-0.23764-0.33044c-22.877-31.117-55.077-50.488-86.79-64.983-8.5369-3.9527-18.477-10.322-31.118-10.601-0.0729-0.0016-0.13988-0.02025-0.21294-0.02145s-0.14149 0.01047-0.21209 0.01714c-3.0187-0.2102-5.7865-0.26757-8.5933-0.26093l-0.23023-0.0023z" fill="none" stroke="#010000" stroke-linecap="round" stroke-linejoin="round" stroke-width=".46495"/>
   <path d="m327.76 236.52c-6.0833 4.1694-11.464 9.793-15.239 16.613l-0.0108 0.0216c-4.0007 6.8399-7.4279 14.112-10.092 21.68-1.7956 5.4557-2.3777 11.444-0.8487 16.754l0.0155 0.06c1.3148 5.8665 3.2468 11.577 6.5712 16.106l9e-3 0.0164c6.9894 10.011 17.396 16.671 28.603 19.196l0.0144 1.4e-4c6.6172 1.5906 13.639 0.3608 20.525-1.0969 16.844-5.052 22.008-9.283 35.392-29.375 3.734-8.2546 4.8436-17.649 4.5939-26.712-0.0969-4.1076-0.56902-8.1694-1.7585-11.929-1e-3 -6e-3 -3e-3 -0.0109-4e-3 -0.0164-1.4109-4.6599-3.2641-9.1516-5.5735-13.257-8e-3 -0.0123-0.014-0.026-0.0217-0.0383-5.0173-8.0152-14.118-10.581-22.127-14.547-16.475-5.9717-31.793 1.467-40.049 6.5238z" fill="none" stroke="#000909" stroke-linecap="round" stroke-linejoin="round" stroke-width="1.1624"/>
   <g fill="none" stroke="#000c0c" stroke-width="3.5828">
    <path transform="matrix(.88848 .00902 -.05865 .9155 -11.424 -64.783)" d="m434.16 368.11c0 2.3855-1.4893 4.3216-3.3243 4.3216s-6.6486-0.60635-6.6486-2.9919 4.8136-5.6514 6.6486-5.6514 3.3243 1.9361 3.3243 4.3216z" fill="none" stroke="#000c0c" stroke-linecap="round" stroke-linejoin="round" stroke-width="1.2884"/>
   </g>
   <path d="m329.17 239.44c-5.5779 3.7125-10.509 8.7206-13.963 14.795l-0.01 0.0192c-3.6617 6.092-6.7962 12.57-9.2299 19.31-1.6396 4.8596-2.1643 10.194-0.752 14.925l0.0144 0.0535c1.2166 5.2264 2.9994 10.314 6.0587 14.349l8e-3 0.0146c6.4327 8.9203 15.998 14.856 26.29 17.108l0.0131 1.4e-4c6.0774 1.4187 12.522 0.32515 18.841-0.97147 15.455-4.4958 20.189-8.2634 32.444-26.158 3.4146-7.3525 4.418-15.721 4.174-23.795-0.0956-3.6592-0.53562-7.2777-1.6337-10.627-1e-3 -5e-3 -2e-3 -0.01-4e-3 -0.0145-1.3027-4.1515-3.0113-8.1534-5.1381-11.811l-0.0199-0.0341c-4.619-7.1416-12.978-9.4298-20.337-12.965-15.134-5.3243-29.185 1.298-36.755 5.8006z" fill="none" stroke="#010000" stroke-linecap="round" stroke-linejoin="round" stroke-width=".46495"/>
   <path d="m354.47 237.51c-13.745 0.13024-18.547 4.0095-25.439 8.8976l-4e-3 4e-3c-4.9259 3.1926-9.3432 7.5304-12.503 12.918-0.0166 0.0284-0.0373 0.0537-0.0539 0.0821-0.0269 0.0468-0.0531 0.0942-0.0784 0.14196l-2e-4 4e-3 -0.0116 0.0187c-2.9994 4.9016-5.585 10.115-7.6003 15.571-0.0116 0.0323-0.0229 0.0647-0.0338 0.0973-1.5477 4.4849-2.1288 9.5928-0.65125 14.413-0.0179-0.0598-0.0339-0.11995-0.0487-0.18083 1.0328 4.2887 2.5763 8.7252 5.4439 12.491l0.10974 0.15515 0.0486 0.0643c5.7556 7.7167 14.135 12.733 23.149 14.655l0.19076 0.0282c20.435 2.6326 29.218-1.4192 45.227-23.496l0.0116-0.0187c13.46-21.736 3.9978-46.936-19.199-53.568-1.541-0.72994-3.5402-2.1766-6.7056-2.2284-0.65274-0.0466-1.1625-0.0489-1.733-0.0477l-7e-3 -7e-5 -0.1119-8e-4zm-41.178 64.132 0.0385 0.0605-4e-3 4e-3 -0.0347-0.0642zm24.218 15.274c0.14647 0.0438 7e-3 -0.0349 0 0z" fill="none" stroke="#010000" stroke-linecap="round" stroke-linejoin="round" stroke-width=".46495"/>
   <path d="m355.13 241.85c-7.9552 0.15129-15.759 3.5067-22.71 7.9743-4.3198 2.7842-8.1359 6.5408-10.806 11.098-2e-3 5e-3 -5e-3 0.01-8e-3 0.0144-2.8303 4.5702-5.2513 9.4297-7.1284 14.487-1.2641 3.646-1.663 7.6485-0.56084 11.198l0.0113 0.0401c0.95117 3.9219 2.3413 7.7399 4.7196 10.768l6e-3 0.011c5.0016 6.695 12.427 11.151 20.412 12.844l0.0102 1e-4c16.681 2.0609 24.574-2.265 39.728-20.343 2.6368-5.516 3.4024-11.795 3.2012-17.853-0.0797-2.7457-0.42623-5.4609-1.2828-7.9744l-3e-3 -0.0109c-1.0164-3.1154-2.3474-6.1186-4.002-8.8636l-0.0155-0.0256c-3.5925-5.3598-9.1301-8.8422-14.842-11.497-1.7373-0.8182-3.3143-1.7933-5.0613-1.8218l-0.034-3.5e-4c-0.53033-0.0395-1.0728-0.0468-1.6252-0.0456l-4e-3 -3e-5 -6e-3 -6e-5z" fill="none" stroke="#010000" stroke-linecap="round" stroke-linejoin="round" stroke-width=".46495"/>
   <path d="m353.27791,244.12433c-7.23065.13749-14.06237,3.13478-19.98649,6.94219-3.87796,2.49925-7.36198,5.9008-9.86224,10.13634l-.0159-.0187c-.0173.0281-.0222.0641-.0395.0922l-.0373.0552-.0373.0552c-2.35328,3.82675-4.36796,7.8984-5.94869,12.15673l-.0395.0921c-1.23298,3.55587-1.68863,7.63503-.49656,11.49018 .001.006-.003.0128-.001.0185l-.001.0185c.78862,3.19377 1.98105,6.47499 4.0911,9.33398l.0148.0371c.0126.017.018.0389.0307.0558l.10917.16769c.0105.0125.0211.025.0318.0374 .0254.0379.0516.0752.0784.11185 .01.0133.0219.0241.0318.0374 4.54646,6.06376 11.14233,9.97511 18.22659,11.4767 4.57653,1.03476 8.98665.20324 12.98757-.59003l.0681.00068c2.1301-.46774 4.39859-.77644 6.81524-1.26356l.051.00052c3.25996-.71188 6.77611-2.25578 9.41033-5.40214 .0113-.0136.0249-.023.0363-.0367 .0142-.0171.0231-.038.0373-.0552l.0159.0187c.10298-.10403.20046-.21429.29197-.33021 .0109-.0137.0254-.0229.0362-.0367 2.76449-3.498 4.37908-7.36471 5.99889-10.71238 .00036-.006.00072-.0124.00072-.0185 2.50994-5.25013 3.1323-10.94008 2.95679-16.22247-.0716-2.46732-.38537-5.02896-1.23704-7.52798-.89064-2.72962-2.02835-5.35971-3.51684-7.82876l-.0943-.13052c-.45889-.68468-.46599-.6909-.0159-.0187-3.4136-5.09245-8.41526-8.11127-13.23845-10.3524-1.16825-.55017-2.73669-1.69913-5.25687-1.7564l-.1701-.002c-.47919-.0282-.87519-.0323-1.27465-.0314l-.051-.00053zm-28.86524,15.99637c-.0117.0134-.22002.23228-.40065.44019 .15805-.18963.3656-.42208.36553-.42204l.0351-.0181z" fill="none" stroke="#010000" stroke-linecap="round" stroke-linejoin="round" stroke-width=".46495"/>
   <path d="m353.14 247.86c-6.3814 0.12135-12.642 2.8029-18.217 6.3863-3.4653 2.2332-6.5241 5.2529-8.6658 8.9082l-0.017-1.7e-4c-2.2704 3.6658-4.2068 7.5658-5.7126 11.622-1.014 2.9244-1.3342 6.1444-0.44999 8.9917l0.0148 0.0371c0.76303 3.1458 1.8679 6.1981 3.7757 8.6274l0.0159 0.0187c4.0122 5.3701 9.9689 8.9342 16.374 10.292 3.7821 0.85512 7.7984 0.19474 11.728-0.58431 2.3111-0.50751 4.5978-0.8058 6.8662-1.2631 2.9158-0.63675 5.8203-1.994 7.7212-4.4752l0.017 1.7e-4c2.3342-2.9414 3.8658-6.519 5.5477-9.995 2.1152-4.4244 2.7156-9.4604 2.5542-14.32-0.0639-2.2024-0.34494-4.3806-1.032-6.3968-0.81535-2.4989-1.8742-4.9204-3.2015-7.1221-4e-3 -6e-3 -0.0115-0.012-0.0159-0.0187-2.8819-4.2992-7.3288-7.0807-11.911-9.2098-1.3936-0.65627-2.6472-1.4436-4.0487-1.4664l-0.034-3.5e-4c-0.42543-0.0317-0.86555-0.0327-1.3086-0.0318z" fill="none" stroke="#010000" stroke-linecap="round" stroke-linejoin="round" stroke-width=".46495"/>
   <path d="m352.30341,252.7775c-5.35644.0963-10.28886,2.23818-14.50062,4.85066-2.84437,1.7692-5.45282,4.20287-7.36233,7.31104l-.017-.00017c-.0222.0346-.0356.0758-.0577.11049-.0147.0231-.0237.0504-.0384.0736l-.0543.055c-.0176.0277-.022.0644-.0395.0921-1.62666,2.58351-3.05689,5.33379-4.16627,8.23204l-.0395.0921c-.91714,2.5661-1.27137,5.57838-.47239,8.51018 .0247.12072.0124.14808.0504.29669 .0139.0546.0439.11239.0581.16719 .008.0243.005.0499.0126.0742l.0159.0187c.617,2.35342 1.53971,4.88148 3.33977,7.08655 3.41256,4.39352 8.21344,7.07031 13.40457,8.13279 3.50756.76571 6.71873.14346 9.4862-.38493l.0681.00069c1.3774-.2913 2.93174-.50867 4.64555-.84134l.068.0007c2.40823-.50652 5.14855-1.60385 7.34087-4.0904l.016.0187c.12854-.12676.25025-.26151.36442-.40353 .0152-.0185.0222-.0366.0373-.0552 2.12753-2.61065 3.26525-5.33368 4.32416-7.45298l.0181-.0183c1.93317-3.9163 2.37147-8.06494 2.2344-11.80573-.0567-1.75521-.27162-3.66309-.96029-5.6-.65871-1.93451-1.50202-3.78904-2.61357-5.56129l-.11027-.14921-.0159-.0187c-2.63147-3.77479-6.31203-5.87615-9.73712-7.41066-.6932-.31474-1.93583-1.24063-4.17763-1.30115l-.20412-.002c-.30072-.0163-.56912-.0278-.86642-.0274l-.051-.0005zm-26.80648,27.7346c.001-.008.004.0537-.0154.25902-.007.0772-.0392.1972-.0538.33265 .0135-.0872.0289-.21564.0335-.27732 .0178-.2382.0345-.30606.0357-.31435zm-.077.72117c-.001.13414.0752.4339.11345.66756-.0438-.25887-.12417-.5286-.11345-.66756z" fill="none" stroke="#010000" stroke-linecap="round" stroke-linejoin="round" stroke-width=".46495"/>
   <path d="m352.14 257.27c-4.3637 0.0784-8.6303 1.8619-12.438 4.2237-2.3664 1.4719-4.4553 3.4534-5.9146 5.8634l-0.017-1.7e-4c-1.5473 2.4169-2.8702 4.9862-3.894 7.661-0.68918 1.9283-0.89301 4.0426-0.28425 5.9206 2e-3 7e-3 -4e-3 0.0298-2e-3 0.037 0.52635 2.0747 1.2977 4.0883 2.6058 5.6908 2.7515 3.5424 6.8386 5.8995 11.22 6.7964 2.5876 0.56486 5.3193 0.13133 8.0052-0.38148 1.5797-0.3341 3.163-0.53968 4.7136-0.84063 1.993-0.41919 3.967-1.291 5.2632-2.9268l0.0181-0.0183c1.5919-1.9392 2.617-4.2968 3.7621-6.5887 1.44-2.9172 1.8537-6.2366 1.7363-9.4414-0.0469-1.4524-0.22987-2.8794-0.70267-4.2091-0.5612-1.6481-1.2941-3.2533-2.2049-4.7056l-0.017-1.8e-4c-1.9769-2.8359-5.0119-4.6751-8.1483-6.0803-0.95395-0.43315-1.8261-0.95692-2.7845-0.97233l-0.0171-1.7e-4c-0.29093-0.021-0.5974-0.0281-0.90041-0.0277z" fill="none" stroke="#010000" stroke-linecap="round" stroke-linejoin="round" stroke-width=".46495"/>
   <path d="m349.64 265.56c-2.6329 0.0456-5.2121 1.0901-7.5076 2.4815-1.4266 0.86712-2.6854 2.0374-3.5639 3.4575l-3e-3 5e-3c-0.93157 1.4241-1.7273 2.9386-2.3428 4.5148-0.41422 1.1364-0.54167 2.384-0.17277 3.4908l4e-3 0.0125c0.31933 1.2228 0.78382 2.4133 1.5745 3.3579l2e-3 3e-3c1.6632 2.088 4.1262 3.4787 6.7708 4.0078l4e-3 4e-5c1.5618 0.33327 3.2144 0.0789 4.8346-0.22289 0.95288-0.19666 1.902-0.31643 2.8374-0.49359 1.2022-0.24674 2.3975-0.76941 3.1783-1.7333l2e-3 -2e-3c0.95891-1.1426 1.5846-2.5314 2.2736-3.882 0.86643-1.719 1.1126-3.6762 1.0391-5.5649-0.0295-0.85595-0.14734-1.7024-0.43371-2.4862l-7.2e-4 -3e-3c-0.34002-0.97136-0.78398-1.9079-1.3348-2.7639l-5e-3 -8e-3c-1.1952-1.6716-3.0321-2.7583-4.9257-3.5868-0.57599-0.25539-1.099-0.55968-1.6774-0.56891l-0.0113-1.1e-4c-0.17559-0.0124-0.35515-0.0148-0.53796-0.0145l-1e-3 -1e-5 -2e-3 -4e-5z" fill="none" stroke="#010000" stroke-linecap="round" stroke-linejoin="round" stroke-width=".46495"/>
   <path d="m346.85 278.94c-1.5529-0.42078-2.293-0.97171-2.3099-1.7195-0.0163-0.7213 1.7649-2.5291 3.4292-3.4804 1.8787-1.0739 2.7713-1.0189 3.5607 0.21944 0.6996 1.0974 0.73508 2.1252 0.12301 3.5634-0.78569 1.8462-1.9507 2.1899-4.803 1.417v1e-5z" fill="none" stroke="#0d0d0d" stroke-linecap="round" stroke-linejoin="round" stroke-width=".4952"/>
   <path d="m356.04 223.48c-12.749-0.20818-23.584 5.3204-30.084 9.3016-0.0602 0.0409-0.11951 0.0835-0.17781 0.12774-6.5694 4.5025-12.438 10.595-16.599 18.083-0.0134 0.0242-0.025 0.0493-0.0385 0.0736l-0.0769 0.1473-0.0384 0.0736c-4.0732 7.0028-7.573 14.433-10.308 22.201l-0.0406 0.11066c-2.0266 6.1576-2.7572 13.07-0.90519 19.501l-1e-3 0.0185c1.337 5.9028 3.3396 11.844 6.8919 16.896 0.0292 0.0572 4e-3 5e-3 0.0307 0.0558 0.0197 0.0278 0.0258 0.0653 0.0455 0.093 0.062 0.11547 0.12917 0.22734 0.2013 0.33526l0.0477 0.056c7.5739 10.816 18.731 17.944 30.769 20.656 7.5854 1.8233 15.119 0.36728 22.09-1.1085 0.10412-0.0192 0.20774-0.0428 0.31059-0.0709 8.6028-2.5802 14.773-5.1406 20.43-9.8254s10.521-11.146 17.283-21.297c0.145-0.21522 0.27249-0.44317 0.38092-0.68104 4.1476-9.169 5.2789-19.274 5.0163-28.807-0.10157-4.304-0.5875-8.6826-1.8873-12.903l1e-3 -0.0185c-0.0248-0.0803-0.0454-0.16115-0.0707-0.24134l-0.017-1.9e-4c-0.0538-0.17734-0.13532-0.34327-0.1903-0.52022-1.4669-4.7203-3.3304-9.2981-5.7134-13.534-0.0351-0.057-0.0715-0.11285-0.10915-0.16771-0.699-1.1124-0.71527-1.1239-0.0319-0.0374-5.9736-9.5431-16.036-12.178-23.629-15.937-0.11905-0.0574-0.24099-0.10801-0.36541-0.1518-4.5058-1.6332-8.9643-2.3601-13.216-2.4296z" fill="none" stroke="#010000" stroke-linecap="round" stroke-linejoin="round" stroke-width=".46495"/>
   <path d="m356.26141,220.01651c-13.63219-.22258-25.00088,5.65247-31.74646,9.78452-.11374.0697-.22593.14267-.3364.2187-6.58711,4.51469-12.46236,10.60708-16.86859,18.04333-.19539.32975-.4293.62106-.61857.95629-.0499.0833-.0995.14905-.1504.23911-.0314.0557-.0621.0888-.0938.14714l-.0192.0368c-.0441.0815-.0865.11559-.13121.2023-4.16334,7.17054-7.73833,14.79715-10.54613,22.77225l-.061.16597c-2.20392,6.69646-3.06432,14.32318-.98076,21.62921 .001.006-.002.013-.001.0185 .005.0187.008.037.0137.0557 .005.0124.01.0248.0148.0372 1.36661,5.97471 3.42129,12.15985 7.17326,17.60259l.1251.18638 .0307.0558c.097.17245.20062.34025.31048.50294l.0477.0561c.009.0136.0223.0238.0318.0374 .004.006.0121.013.0159.0187 .0874.12656.21719.37411.27975.4471-.0553-.0646-.17476-.30467-.24794-.40975 .16679.23707.35065.45654.52062.69018 .005.00042.0121.0192.0159.0187 8.02156,11.01865 19.50617,18.25978 31.91951,21.05629 8.35966,2.00938 16.2922.39434 23.33197-1.09586 .18562-.0397.37012-.0872.55311-.14246 8.74739-2.62357 15.46457-5.36983 21.59048-10.44295s11.15903-11.85072 17.97719-22.08593c.25445-.38464.47802-.7912.66799-1.21498 4.47839-9.90023 5.64464-20.57837 5.37163-30.4883-.10385-4.40089-.61623-8.94556-1.95636-13.45871l-.0708-.24135 .017.00015-.0444-.11151-.0137-.0557-.057-.1857c-.008-.0239-.005-.0503-.0126-.0742l-.017-.00019c-.0918-.30231-.22614-.59041-.32137-.89178 .0697.15249.11531.32602.20288.5944-.10719-.30939-.17223-.50797-.26431-.70608 .0215.0448.0397.0641.0614.11168-1.51281-4.78673-3.40283-9.46304-5.84995-13.81295-.0593-.10731-.12114-.21286-.1854-.31658-.0174-.0278-.0149-.0103-.0318-.0373-6.73845-10.76493-17.58174-13.42882-24.84081-17.02308-.21607-.10726-.43764-.20217-.66388-.28441-4.81528-1.74541-9.59394-2.5313-14.14198-2.60557zm-48.33018,27.33095c-.17197.15967-.38444.41678-.60314.69728 .2365-.30155.42021-.5351.60314-.69728z" fill="none" stroke="#010000" stroke-linecap="round" stroke-linejoin="round" stroke-width=".46495"/>
   <path d="m356.48209,216.59426c-21.17423,1.31027-38.8634,10.29647-51.48946,29.22397-.0679.0883-.1322.15949-.20253.25709 .0527-.0732.0946-.0973.14599-.16511-.21151.3503-.45183.6736-.65702,1.02994-.079.12668-.16322.24768-.24423.38624-.04.0708-.0914.13125-.13117.20229l-.0171-.00016-.13339.23928-.0576.11046-.0566.092-.0757.1288c-4.23385,7.31464-7.89193,15.09974-10.76187,23.25137l-.0824.2398c-2.39477,7.27629-3.37871,15.64949-1.01195,23.86868l.0137.0557c1.39521,6.05232 3.51224,12.46522 7.43983,18.27173 .069.12843.0771.0899.14098.20503 .0611.11018.0674.10632.12397.20489 .12219.21634.25153.42756.38783.6333l.0478.0561 .0784.11186c.003.004-.004.0147-.001.0185l.017.00017 .0159.0187c.24577.34875.5219.6658.77404,1.00745-.0507-.008-.0694.0279-.19861-.0946 .15177.15516.16524.12812.21341.13174 8.46852,11.45991 20.43942,18.95049 33.38607,21.86714 9.12869,2.19426 17.46613.42134 24.5737-1.08322 .27283-.0596.54391-.13096.81268-.21388 8.89098-2.66666 16.14192-5.60193 22.73356-11.06071s11.79596-12.53754 18.66981-22.85637c.36976-.55318.6951-1.13839.97208-1.74866 4.8069-10.62656 5.97512-21.86764 5.69181-32.15103-.10963-4.64626-.63396-9.55135-2.11582-14.49695l.017.00017c-2e-005-2e-005-.0543-.13355-.0593-.1487-.004-.0107-.0217-.094-.0274-.11132l-.0707-.24136c-.0133-.0424-.0129-.0874-.0263-.12987l-.017-.00017c-1.6118-5.29423-3.73181-10.47218-6.45819-15.3185-.0841-.15148-.17173-.30049-.26275-.44692-.0174-.0277-.0148-.0102-.0318-.0374-7.4981-11.97844-19.10661-14.69702-26.03459-18.12735-.31308-.15719-.63429-.29636-.96237-.41699-5.12271-1.85686-10.22666-2.68403-15.06872-2.76307z" fill="none" stroke="#010000" stroke-linecap="round" stroke-linejoin="round" stroke-width=".46495"/>
   <path d="m356.8827,210.43422c-41.66615,7.00053-74.12164,40.08289-70.59662,87.17243-.16696-.58473-.2812-1.06065-.25114-.92809 1.45154,6.47643 3.73365,13.66805 8.17963,20.42647 .065.0988.12052.19942.18653.29805l.0159.0187c.0353.0636.0442.0508.0785.11185 .003.004-.004.0145-.001.0185 .28924.42865.5172.86117.82557,1.28562 .0405.0578.0854.11024.12617.1679 .0121.0171.0187.0388.0307.0558 .39061.5518.82862,1.05077 1.2332,1.58596 .001-3e-005-.002.0185-.001.0185 9.26216,12.24627 22.08487,20.18658 35.98887,23.3189 10.5112,2.52657 19.59065.45144 26.82013-1.07891 .41768-.0892.83284-.19612 1.24451-.32054 9.14915-2.7441 17.34505-6.01707 24.77389-12.16919s12.97131-13.79961 19.94528-24.26875c.56676-.85671 1.06491-1.76225 1.48864-2.70596 5.3975-11.93224 6.61312-24.17021 6.31129-35.12498-.11316-4.79609-.66665-9.98656-2.18316-15.36767-.0433-.18036-.0894-.35978-.13818-.5382l.017.00017-.0433-.13001c-.004-.013-.0109-.0241-.0148-.0371-.00035-.00081.001-.0173.001-.0185-.0614-.20602-.10332-.40593-.1678-.61256l-.057-.18568c-1.72326-5.65067-5.04525-10.18464-8.00384-15.4437-.1291-.22721-.26336-.45076-.4026-.67047-.0259-.0413-.0223-.0155-.0477-.0561-8.86369-14.16006-20.81298-17.9848-27.14578-21.12046-.48108-.23615-.97422-.44502-1.47755-.62584-5.6754-2.05719-11.36447-2.98848-16.73512-3.07616zm52.98337,38.91101c.0218.0467.0395.0638.0614.11172 .091.19911.14656.45838.25994.78006-.1441-.39639-.19795-.60802-.32138-.89178z" fill="none" stroke="#010000" stroke-linecap="round" stroke-linejoin="round" stroke-width=".46495"/>
   <path d="m357.06 207.7c-16.785-0.27403-30.092 6.7748-37.717 11.445-0.2871 0.17444-0.57035 0.35673-0.84951 0.5467-17.114 12.527-25.82 28.841-33.325 48.9-0.0552 0.14079-0.10901 0.28219-0.16137 0.42409-2.8374 8.6212-4.1219 18.758-1.2248 29.161-0.0831-0.32901-0.21854-0.80352-0.19629-0.70542 0.0781 0.34861 0.19386 0.72324 0.27633 1.0764 6.6317 26.463 23.142 40.637 48.197 48.118 11.125 2.674 20.523 0.4729 27.807-1.0689 0.48159-0.10446 0.9603-0.22927 1.4349-0.37417 9.2637-2.7785 17.888-6.1998 25.688-12.66s13.475-14.357 20.493-24.893c0.66578-0.98951 1.2521-2.0367 1.7521-3.1291 5.6597-12.512 6.8707-25.202 6.5607-36.455-0.12028-5.0977-0.69464-10.683-2.403-16.536l0.017 1.7e-4c-1.788-6.3325-4.4599-12.373-7.5008-18.106-0.14874-0.26504-0.30348-0.52583-0.46406-0.78219-0.026-0.0414-0.0221-0.0153-0.0477-0.0561-9.4698-15.128-23.082-17.968-29.15-20.973-0.56244-0.27277-1.1389-0.5134-1.7272-0.72098-5.9207-2.1461-11.854-3.1216-17.459-3.2131z" fill="none" stroke="#010000" stroke-linecap="round" stroke-linejoin="round" stroke-width=".46495"/>
   <path d="m357.2426,204.95867c-17.48501-.28547-31.21305,7.03046-39.03317,11.82073-.3288.19752-.65326.40408-.97297.61948-17.60356,12.76019-26.73737,29.81075-34.41479,50.33314-.0627.16531-.1236.3313-.18283.49794-3.01753,9.1685-4.41661,20.00955-1.17904,31.2528l.0275.11137c1.50447,6.38986 3.85822,13.51591 8.33161,20.4465 .24582.4577.38848.64801.60286,1.02421-.11346-.20408-.19988-.36749-.32201-.59561 .19569.36684.40129.72693.61657,1.07987 .13704.21411.27765.42536.42183.63366 .0643.0921.14107.16956.20572.26125 .0307.0421.0465.0883.0773.13036l.0181-.0184c.56219.79352 1.16443,1.53345 1.75271,2.29463 9.95103,12.87584 23.5229,21.17525 38.23397,24.48938 11.739,2.8217 21.45552.49439 28.79327-1.05886 .54557-.11972 1.08779-.26237 1.62537-.42777 9.37842-2.81286 18.44695-6.38211 26.61938-13.15s13.97787-14.91377 21.04074-25.51636c.75319-1.12377 1.41632-2.31261 1.98152-3.55247 5.92204-13.09183 7.16231-26.23407 6.84407-37.78514-.1188-5.03458-.70611-10.57955-2.32345-16.4427-.0557-.24251-.11504-.48378-.17818-.72372l.017.00017-.0878-.24155-.0422-.14852c-.065-.21786-.0975-.43077-.16556-.64956-.008-.0254-.0219-.0489-.0296-.0743-.0176-.0561-.0233-.11084-.0411-.16701l-.017-.00017c-1.82186-5.96323-4.22271-11.85385-7.3851-17.47518-.16836-.30284-.34358-.60088-.5255-.89387l-.0307-.0558c-.0175-.0278-.0145-.01-.0318-.0374-10.07491-16.05869-24.28945-18.92536-30.08832-21.79662-.63753-.31497-1.2913-.59346-1.95872-.83438-6.16626-2.2351-12.3595-3.25484-18.19959-3.35018z" fill="none" stroke="#010000" stroke-linecap="round" stroke-linejoin="round" stroke-width=".46495"/>
   <path d="m357.54473,200.16742c-45.54915,7.57219-64.12661,26.74543-78.83867,66.07896-.0705.19602-.13888.3928-.20532.59027-3.27408,9.94796-4.85493,21.8173-1.25866,34.30627l.0275.11136c1.6614,7.01252 4.21326,15.02786 9.58223,22.88412l.0477.056c.0283.0414.0489.089.0774.13037l.0774.13037c.16773.25825.33982.51303.51618.76418l.11027.14922c.0765.10576.14187.21125.21941.31688l.0181-.0183c.6793.95731 1.40213,1.84855 2.11639,2.7611 .0109.003.0389.0352.0489.0374 .004.0008.0123.018.0159.0187 10.55041,13.44626 24.76354,22.0879 40.19543,25.56442 12.81425,3.08014 23.0979.49509 30.53048-1.07826 .66101-.13832 1.31818-.30456 1.96998-.4983 9.57922-2.87307 19.39657-6.71512 28.22009-14.02227s14.88353-15.87902 22.02426-26.59852c.90707-1.36312 1.70483-2.80457 2.3839-4.30731 6.3814-14.10734 7.65558-28.03939 7.32296-40.11263-.12955-5.48966-.75869-11.64906-2.65779-18.26015l.017.00018-.074-.18587c-.001-.005-.0263-.086-.0285-.0928-.0774-.32365-.16038-.6454-.24892-.9651-.0332-.10684-.0494-.20842-.0833-.31551l-.0181.0183c-1.90822-6.23696-4.4169-12.42938-7.7575-18.36746-.20858-.36618-.4255-.72635-.65057-1.08024l-.0307-.0558c-.0175-.0278-.0145-.01-.0318-.0374-11.13634-17.755-26.43025-20.68905-31.76708-23.33157-.77281-.37972-1.56519-.71523-2.37409-1.00517-6.59609-2.3909-13.24493-3.48342-19.49613-3.58549z" fill="none" stroke="#010000" stroke-linecap="round" stroke-linejoin="round" stroke-width=".46495"/>
   <path d="m353.41 193.64c-40.808 3.3693-64.395 35.19-78.131 69.458-4.728 12.356-4.155 24.887-1.5615 37.196l0.0292 0.11866c2.1604 10.979 7.1059 20.718 13.58 28.964 0.0116 4e-3 0.0415 0.0375 0.052 0.0399 11.122 14.607 26.097 22.299 42.786 27.268 22.373 4.1195 45.294-2.3445 64.614-16.628 21.406-21.11 33.337-43.032 33.772-75.698-0.13729-5.8514-0.80609-12.417-2.8262-19.463l0.0181 1.9e-4 -0.0787-0.19809c-1e-3 -5e-3 -0.028-0.0917-0.0304-0.099-12.491-29.493-41.802-49.493-72.223-50.958z" fill="none" stroke="#010000" stroke-linecap="round" stroke-linejoin="round" stroke-width=".46495"/>
   <path d="m355.16 196.24c-40.059 3.3408-63.107 32.811-76.609 66.753-4.6476 12.239-6.3949 24.114-3.8556 36.305l0.0285 0.11752c2.1149 10.874 6.9644 20.519 13.315 28.686 0.0114 3e-3 0.0407 0.0372 0.051 0.0396 10.91 14.466 25.606 22.084 41.985 27.004 21.959 4.0782 44.463-2.3261 63.435-16.475 21.024-20.91 32.747-42.624 33.191-74.978-0.13168-5.7954-0.78474-12.298-2.764-19.277l0.0177 2e-4 -0.0772-0.19622c-1e-3 -5e-3 -0.0275-0.0908-0.0298-0.098-12.246-29.211-38.826-46.432-68.687-47.881z" fill="none" stroke="#010000" stroke-linecap="round" stroke-linejoin="round" stroke-width=".46495"/>
   <path d="m325.6 429.38c-7.0129-0.80207-18.748-3.6325-28.074-6.7715-22.255-7.4903-42.866-19.626-61.114-35.984-5.4064-4.8464-18.688-19.709-22.015-24.636-7.0012-10.368-12.334-21.992-18.44-40.198-3.1584-9.4162-4.0208-14.167-4.0279-22.187-9e-3 -10.38 1.2346-16.973 5.9705-31.649 9.2519-28.67 24.84-62.367 36.01-77.842 11.832-16.392 27.517-29.728 51.208-43.536 26.791-15.616 51.625-23.97 76.748-25.818 10.099-0.74283 14.666-0.21278 20.061 2.3286 2.3027 1.0848 6.6536 3.0951 9.6687 4.4674 22.748 10.354 40.493 21.257 54.82 33.683 6.907 5.9908 16.22 16.631 20.292 23.183 10.16 16.35 18.951 35.391 22.648 49.056 3.7016 13.683 5.5961 32.81 5.2248 52.752-0.45559 24.47-2.6713 34.963-12.866 60.926-10.605 27.009-15.54 37.574-22.307 47.756-6.1576 9.2659-14.121 14.796-27.329 18.979-2.0874 0.66106-12.714 2.8915-23.615 4.9566s-24.753 4.7249-30.784 5.9108c-20.318 3.9957-28.662 4.9748-41.49 4.8685-5.012-0.0415-9.7769-0.15145-10.589-0.24429v-1e-5zm29.308-3.694c3.247-0.43002 11.881-1.9123 19.187-3.2939 43.442-8.2156 53.749-10.263 57.35-11.393 8.8899-2.789 17.349-7.8015 22.062-13.073 5.2492-5.8716 12.323-19.002 18.967-35.207 11.835-28.865 14.956-37.995 17.147-50.164 4.1229-22.898 2.9328-56.593-2.7596-78.137-3.4969-13.234-12.744-33.232-22.467-48.584-12.1-19.106-34.555-36.683-66.896-52.364-4.4067-2.1367-9.6251-4.7888-11.597-5.8937-6.303-3.5325-8.295-4.0055-16.867-4.0055-18.756 0-37.627 4.3416-58.826 13.533-18.064 7.8326-39.579 20.772-52.29 31.448-10.817 9.086-20.715 20.565-27.509 31.904-11.883 19.833-28.615 59.994-33.661 80.795-2.9683 12.236-3.0183 24.403-0.13976 33.991 1.9908 6.631 6.895 19.916 9.6166 26.05 4.9149 11.077 9.1025 17.95 16.175 26.546 8.3563 10.157 17.498 18.788 28.771 27.164 14.079 10.461 27.985 17.956 44.168 23.804 9.7003 3.5056 23.926 7.0127 31.526 7.7725 4.2686 0.42667 22.452-0.15194 28.043-0.89233z" fill="#7f2b09" fill-opacity=".57333"/>
   <path d="m317.38 405.61c-7.065-0.71687-10.056-1.4652-18.11-4.5315-23.353-8.8903-39.736-18.577-50.579-29.904-3.868-4.0406-12.302-14.807-15.461-19.736-15.295-23.868-19.166-53.453-10.896-83.28 1.9556-7.0529 3.7259-11.542 9.7687-24.771 7.0037-15.333 8.4663-18.225 12.999-25.707 11.003-18.161 28.485-37.978 42.76-48.472 16.26-11.954 40.173-21.349 62.832-24.686 7.835-1.1541 20.812-1.1782 25.302-0.047 15.085 3.8006 31.772 14.284 53.077 33.343 12.849 11.495 18.722 17.991 25.638 28.358 9.5703 14.345 15.334 30.718 16.872 47.93 0.64722 7.2409-0.0586 28.907-1.348 41.378-3.181 30.766-10.203 53.146-22.503 71.724-3.2919 4.9719-13.354 16.062-17.101 18.849-7.5336 5.6022-17.651 9.1557-42.828 15.042-14.546 3.4008-17.482 3.8809-27.832 4.5511-8.4048 0.54429-37.101 0.51787-42.591-0.0392v1e-5zm43.645-5.1587c6.3781-0.2603 14.443-0.79933 17.922-1.1978 6.5758-0.75329 24.832-4.6703 30.902-6.6303 6.8499-2.2118 15.28-7.7957 20.544-13.608 1.6944-1.8709 4.1904-4.4319 5.5466-5.6911 16.64-15.45 25.543-35.712 29.008-66.022 1.6289-14.246 3.1932-43.132 2.7333-50.471-1.0559-16.851-5.6362-32.143-13.775-45.99-7.1019-12.083-14.365-20.323-28.152-31.937-20.192-17.01-34.759-25.159-53.084-29.697-4.3399-1.0746-6.0305-1.2575-11.224-1.2139-27.458 0.23038-64.251 14.323-84.12 32.221-9.4621 8.5233-20.152 22.425-27.903 36.287-7.374 13.188-17.173 36.146-21.038 49.292-9.5396 32.444-4.9089 65.34 12.45 88.443 1.462 1.9458 3.4212 4.7052 4.3538 6.132s2.4539 3.5495 3.3806 4.717c8.9294 11.249 27.802 23.513 44.954 29.212 12.093 4.0186 21.517 5.4611 40.091 6.1364 14.417 0.52418 14.983 0.52452 27.41 0.0174z" fill="#7f2b09" fill-opacity=".37778"/>
   <path d="m336.56 378.61c-0.1206-0.14161-1.8902-0.3706-3.9324-0.5089-5.5276-0.37429-8.0796-1.0119-15.593-3.8959-19.756-7.583-31.163-14.181-39.786-23.013-14.938-15.298-24.597-41.693-24.597-67.216 0-12.508 2.5548-23.583 7.8098-33.855 19.936-38.969 43.035-62.464 70.808-72.02 10.075-3.4668 19.332-4.9578 25.254-4.068 17.145 2.5762 35.048 9.5176 49.06 19.021 19.136 12.979 32.747 30.856 38.683 50.804 2.5511 8.5739 3.3735 13.929 3.3324 21.698-0.13434 25.391-7.7685 49.466-21.969 69.28-4.0231 5.6135-11.49 14.297-15.209 17.687-7.9285 7.2269-25.144 16.532-38.43 20.771-6.4254 2.0501-12.07 3.3646-18.286 4.2583-5.1892 0.74603-16.8 1.4616-17.145 1.0566l1e-5 3e-5zm20.46-5.2686c13.483-1.9825 26.246-6.4402 38.581-13.475 8.6156-4.9133 11.691-7.3973 18.328-14.805 9.979-11.138 15.852-20.061 21.125-32.098 7.0687-16.136 9.7007-31.642 8.6516-50.97-0.69414-12.79-2.4864-21.592-5.8047-28.51-15.122-31.526-45.21-53.03-79.247-56.638-13.307-1.4105-28.373 1.9931-41.129 9.292-19.518 11.167-35.854 30.904-52.096 62.939-6.9403 13.689-8.7561 21.094-8.7262 35.586 0.0189 9.1819 0.78045 14.762 3.5412 25.952 3.6214 14.677 8.2808 24.702 15.436 33.21 9.1231 10.848 21.669 19.01 38.749 25.209 9.1677 3.3275 12.836 4.1991 21.928 5.2099 3.3201 0.36912 15.695-0.17048 20.663-0.901v-2e-5z" fill="#7f2b09" fill-opacity=".40444"/>
   <path d="m326.46 473.84c-10.243-0.92447-28.603-5.2749-42.156-9.9888-23.598-8.2076-48.687-22.572-67.221-38.486-28.632-24.584-45.09-48.724-57.064-83.7-7.4466-21.751-9.1758-31.738-8.4723-48.93 0.67011-16.377 4.8776-33.573 14.387-58.798 7.6606-20.322 20.083-46.97 28.057-60.189 10.82-17.936 26.329-35.201 42.767-47.609 27.853-21.024 59.612-36.731 89.703-44.364 16.073-4.0772 23.284-4.9762 40.1-4.9994 13.944-0.01924 15.927 0.1423 20.68 1.6845 12.77 4.1436 52.175 24.769 65.862 34.473 19.889 14.102 35.952 30.265 46.326 46.616 9.0159 14.21 19.019 34.257 24.494 49.086 7.5134 20.352 11.246 45.149 11.257 74.787 0.0121 32.007-3.3603 49.442-15.805 81.71-10.891 28.24-16.964 41.166-25.763 54.837-11.57 17.975-28.341 30.29-49.951 36.679-6.478 1.9153-68.878 14.096-80.805 15.773-8.2681 1.1628-29.893 2.0062-36.394 1.4194v-2e-5zm35.987-4.5246c9.5506-1.3352 64.567-11.813 74.712-14.229 18.078-4.3048 33.658-12.955 44.635-24.783 10.957-11.806 19.752-28.116 32.46-60.198 9.1275-23.043 12.47-33.691 15.066-47.993 3.1548-17.38 3.9693-41.472 2.1129-62.49-2.4925-28.219-6.7356-44.282-18.147-68.699-9.3409-19.986-18.292-34.38-28.624-46.03-19.464-21.946-40.754-36.831-78.172-54.655-19.051-9.0751-22.146-10.023-34.519-10.572-30.124-1.3372-63.779 7.7821-98.291 26.633-37.506 20.486-60.605 41.244-77.287 69.452-16.569 28.018-35.466 75.267-40.387 100.99-2.0066 10.486-2.1712 29.97-0.33447 39.597 3.0454 15.963 13.135 42.893 21.872 58.377 7.057 12.507 19.004 27.535 31.205 39.251 32.233 30.951 76.173 52.041 118.4 56.826 5.3394 0.60513 26.852-0.29365 35.301-1.4749v-2e-5z" fill="#f9aa44"/>
   <path d="m325.22 460.06c-37.436-4.8099-77.59-23.823-106.58-50.466-23.365-21.473-36.823-42.52-47.85-74.832-4.5913-13.454-5.6646-17.992-6.6381-28.066-1.355-14.021 0.56438-28.463 6.1385-46.188 7.9658-25.33 17.28-47.462 30.384-72.195 16.361-30.881 43.92-55.94 83.476-75.904 29.265-14.77 52.692-21.229 79.798-22.003 17.091-0.48776 18.415-0.17353 37.864 8.9883 36.661 17.27 57.737 31.925 76.456 53.165 10.964 12.44 23.133 33.544 31.938 55.387 8.57 21.26 11.648 38.853 12.23 69.903 0.65193 34.797-2.1396 49.735-15.822 84.669-14.749 37.657-24.613 55.058-37.061 65.379-12.692 10.523-24.549 15.352-48.985 19.948-7.766 1.4609-22.039 4.2015-31.717 6.0902s-21.245 3.9922-25.705 4.6744c-7.6311 1.1674-32.671 2.1236-37.926 1.4484v2e-5zm38.386-6.7915c7.9976-1.3366 55.217-10.36 66.529-12.713 9.6517-2.0079 18.776-5.4505 26.694-10.072 15.178-8.8581 23.642-19.972 35.529-46.65 9.1762-20.594 17.414-42.378 20.219-53.471 3.9492-15.614 5.2598-27.516 5.2518-47.69-0.0106-27.099-3.1967-49.028-9.6987-66.756-8.1873-22.322-20.79-45.163-32.554-59.003-17.051-20.059-39.629-35.918-74.219-52.131-19.71-9.2387-20.231-9.3824-33.982-9.3856-17.067-0.0039-33.83 3.0533-53.057 9.6763-23.39 8.0571-54.24 25.476-73.209 41.336-8.9116 7.4509-22.292 22.228-28.225 31.17-15.927 24.008-37.253 75.288-42.568 102.36-1.932 9.8405-2.1044 25.424-0.38164 34.503 2.8736 15.144 14.87 45.055 23.512 58.622 5.1352 8.0621 20.347 25.663 28.267 32.708 24.634 21.91 51.939 36.727 82.599 44.823 14.774 3.9011 20.274 4.5224 37.015 4.1818 8.6744-0.17652 18.138-0.81786 22.278-1.5098z" fill="#fabb6b"/>
   <path d="m323.51 432.77c-3.0161-0.38402-8.8768-1.5654-13.024-2.6252-36.14-9.2358-67.925-28.947-91.366-56.66-10.637-12.576-17.83-26.053-25.151-47.126-5.2905-15.228-6.4262-22.921-5.1619-34.962 2.2429-21.362 23.515-74.973 39.423-99.358 9.2835-14.23 24.394-28.953 40.867-39.819 35.266-23.262 69.126-35.216 99.751-35.216h8.0347l11.357 5.0791c34.181 15.287 56.104 30.03 72.46 48.73 8.584 9.8142 16.489 23.209 24.592 41.668 9.8199 22.373 13.108 41.855 12.494 74.037-0.50684 26.595-2.5208 35.765-14.554 66.263-12.14 30.768-20.884 46.806-29.301 53.743-9.6457 7.9491-17.136 10.683-42.789 15.619-10.874 2.0924-25.17 4.8591-31.767 6.1485-24.325 4.7538-42.355 6.1993-55.865 4.4791v-1e-5zm33.931-2.9192c6.2206-0.83101 18.251-2.8804 26.733-4.5543s21.901-4.2652 29.818-5.7584c34.305-6.4702 42.304-12.246 55.915-40.376 4.8728-10.071 17.426-41.328 20.179-50.247 8.3623-27.091 8.3479-69.314-0.0336-98.602-3.4216-11.956-12.58-31.538-21.376-45.701-13.538-21.8-36.761-39.81-74.22-57.56-17.516-8.2998-19.42-8.8231-29.8-8.1899-30.905 1.8853-61.951 13.447-94.959 35.364-16.013 10.632-31.096 25.417-40.096 39.304-14.561 22.466-35.049 72.791-38.409 94.343-2.0921 13.42-1.1442 21.4 4.4782 37.702 4.5862 13.298 10.632 26.55 15.873 34.79 5.0613 7.9591 19.782 24.168 28.855 31.772 22.864 19.162 50.61 32.476 79.342 38.072 7.8962 1.5378 24.698 1.3776 37.701-0.3594v3e-5z" fill="#fab46b"/>
   <path d="m330.02 464.62c-17.186-1.2896-39.676-7.3139-58.265-15.607-39.326-17.545-73.167-47.568-91.146-80.864-6.759-12.517-16.325-38.072-18.958-50.646-1.785-8.5244-1.8044-30.14-0.0354-39.484 3.7641-19.883 17.913-57.329 32.325-85.546 13.101-25.652 28.142-43.732 49.711-59.753 26.417-19.623 55.517-34.094 83.188-41.37 14.776-3.8853 25.106-5.2686 39.853-5.3367 16.317-0.07533 16.643 0.01159 37.701 10.045 36.288 17.291 57.337 31.916 75.838 52.696 10.242 11.503 19.554 26.617 28.624 46.457 10.67 23.341 14.603 38.488 16.872 64.988 2.4757 28.907 0.37727 55.716-6.085 77.738-3.0459 10.379-11.401 32.229-18.588 48.607-9.6518 21.996-19.083 36.435-29.374 44.969-7.6521 6.3464-18.888 12.301-29.244 15.499-8.9933 2.7772-67.535 14.315-81.913 16.145-9.0839 1.1556-24.647 1.9016-30.503 1.4622v1e-5zm18.843-3.3876c12.244-0.93153 16.202-1.5674 50.046-8.0403 34.818-6.6592 39.267-7.6636 47.407-10.702 27.918-10.421 40.283-26.153 60.184-76.579 14.154-35.863 17.11-50.038 17.132-82.142 0.0235-35.133-3.9818-57.046-15.046-82.319-11.752-26.842-23.396-44.794-38.403-59.204-17.437-16.744-37.875-29.93-68.531-44.215-19.175-8.935-19.515-9.0223-34.959-8.9709-29.325 0.09752-59.601 9.0226-91.644 27.016-28.896 16.226-47.909 31.897-62.575 51.578-14.722 19.755-32.594 58.122-43.194 92.731-5.3287 17.397-6.1466 22.454-6.1394 37.954 7e-3 15.727 0.86758 20.248 7.3944 38.864 9.45 26.953 17.422 40.994 33.668 59.298 22.06 24.855 51.829 44.638 84.004 55.826 13.464 4.6818 30.745 8.5442 41.128 9.1924 7.9523 0.49639 9.5463 0.47303 19.528-0.28641l2e-5 1e-5z" fill="#f9aa44"/>
   <path d="m324.54 469.28c-0.94252-0.17652-4.3356-0.70562-7.5401-1.1758-7.6731-1.1258-23.125-5.2459-32.928-8.78-33.131-11.944-62.2-31.58-85.467-57.732-17.062-19.178-26.539-36.278-36.406-65.689-5.7764-17.218-6.6368-22.283-6.5759-38.71 0.0429-11.576 0.29122-14.576 1.809-21.852 5.518-26.455 24.4-73.4 39.783-98.91 16.9-28.027 39.617-48.581 75.573-68.38 35.687-19.651 72.128-29.334 101.89-27.074 10.419 0.79118 13.847 1.9389 32.371 10.838 37.21 17.876 57.641 32.247 77.062 54.208 15.378 17.39 33.116 50.984 39.94 75.647 7.8706 28.444 9.6351 69.042 4.3324 99.677-2.4632 14.23-6.3794 26.426-17.357 54.055-13.476 33.918-24.898 51.906-40.157 63.238-9.1611 6.8038-22.938 12.905-35.366 15.661-9.1788 2.0359-60.355 11.883-70.177 13.503-7.1021 1.1715-36.696 2.2439-40.785 1.478v2e-5zm39.414-5.2873c4.1471-0.65198 16.331-2.8979 27.076-4.9909s25.088-4.8446 31.874-6.1148c33.992-6.3626 51.28-16.801 65.598-39.609 8.0373-12.803 13.267-24.158 24.333-52.829 5.6288-14.584 7.1371-19.058 9.3059-27.603 4.1599-16.39 5.5875-29.498 5.5114-50.605-0.11447-31.768-4.0865-54.684-13.442-77.552-9.4845-23.182-21.027-42.99-32.829-56.333-19.026-21.513-39.948-35.988-78.46-54.284-19.037-9.0441-21.186-9.5434-38.926-9.0437-19.525 0.55003-33.393 3.1548-52.823 9.9216-22.274 7.7574-49.382 22.415-69.422 37.537-13.84 10.443-28.507 26.076-37.853 40.345-16.412 25.056-38.306 78.287-43.107 104.81-2.8628 15.813-2.5137 31.009 1.0272 44.704 4.5991 17.788 15.114 42.976 23.331 55.887 11.33 17.804 31.283 38.146 50.966 51.96 25.96 18.22 60.686 31.996 88.768 35.216 5.7748 0.66215 31.873-0.28257 39.072-1.4144v-2e-5z" fill="#f9aa44"/>
  </g>
 </g>
</svg>
