<?xml version='1.0' encoding='utf-8'?>
<svg xmlns="http://www.w3.org/2000/svg" id="Capa_1" enable-background="new 0 0 512 512" height="512" viewBox="0 0 512 512" width="512"><g><g><ellipse cx="80" cy="304" fill="#a0815c" rx="64" ry="112"/><path d="m496 304c0 61.86-28.65 112-64 112h-352c35.35 0 64-50.14 64-112s-28.65-112-64-112h159.6l-43.76-50.24c8.7 9.99 26.56 8.68 39.89-2.92s17.07-29.12 8.37-39.12l80.37 92.28h107.53c35.35 0 64 50.14 64 112z" fill="#5f4d37"/><path d="m235.73 138.84c-13.33 11.6-31.19 12.91-39.89 2.92s-4.96-27.51 8.36-39.12 31.19-12.91 39.9-2.92 4.96 27.51-8.37 39.12z" fill="#a0815c"/></g><g><path d="m484.2 220.83c-13.57-23.75-32.11-36.83-52.2-36.83h-103.89l-77.98-89.53c-11.59-13.31-34.55-12.35-51.18 2.14s-20.74 37.09-9.15 50.4l32.22 36.99h-142.02c-20.09 0-38.63 13.08-52.2 36.83-12.77 22.35-19.8 51.88-19.8 83.17s7.03 60.82 19.8 83.17c13.57 23.75 32.11 36.83 52.2 36.83h352c20.09 0 38.63-13.08 52.2-36.83 12.77-22.35 19.8-51.88 19.8-83.17s-7.03-60.82-19.8-83.17zm-282.33-84.33c-5.7-6.54-2.22-19.28 7.59-27.83s22.91-10.23 28.6-3.69 2.22 19.28-7.59 27.82-22.91 10.24-28.6 3.7zm-121.87 271.5c-30.35 0-56-47.63-56-104s25.65-104 56-104 56 47.63 56 104-25.65 104-56 104zm138.66-252.21c16.825-3.302 30.621-15.31 36.21-31.52l83.02 95.33c2.902 3.333 7.957 3.682 11.29.78s3.682-7.957.78-11.29l-7.92-9.09h89.96c19.35 0 36.79 19.36 46.89 48h-78.89c-4.418.006-7.995 3.593-7.989 8.011.006 4.41 3.579 7.983 7.989 7.989h83.53c2.997 13.121 4.497 26.541 4.47 40 .115 19.045-2.964 37.974-9.11 56h-134.89c-4.418 0-8 3.582-8 8s3.582 8 8 8h127.98c-10.25 19.61-24.5 32-39.98 32h-315.65c6.242-6.158 11.579-13.172 15.85-20.83 3.471-6.143 6.447-12.554 8.9-19.17h138.9c4.418 0 8-3.582 8-8s-3.582-8-8-8h-133.89c3.965-15.69 5.944-31.817 5.89-48 0-26.33-5-51.39-14.18-72h54.18c4.418 0 8-3.582 8-8s-3.582-8-8-8h-62.73c-3.672-5.816-8.008-11.186-12.92-16h119.61l53.67 61.63c2.902 3.333 7.957 3.682 11.29.78s3.682-7.957.78-11.29z"/><path d="m256 304h-80c-4.418 0-8 3.582-8 8s3.582 8 8 8h80c4.418 0 8-3.582 8-8s-3.582-8-8-8z"/><path d="m288 304h-8c-4.418 0-8 3.582-8 8s3.582 8 8 8h8c4.418 0 8-3.582 8-8s-3.582-8-8-8z"/><path d="m368 264h8c4.418 0 8-3.582 8-8s-3.582-8-8-8h-8c-4.418 0-8 3.582-8 8s3.582 8 8 8z"/><path d="m424 304h-80c-4.418 0-8 3.582-8 8s3.582 8 8 8h80c4.418 0 8-3.582 8-8s-3.582-8-8-8z"/></g></g></svg>